<svg width="48" height="42" viewBox="0 0 48 42" fill="none" xmlns="http://www.w3.org/2000/svg">
<path fill-rule="evenodd" clip-rule="evenodd" d="M46.6025 5.60036C46.5996 5.60036 46.5967 5.6 46.5938 5.6H33.8438V4.2C33.8438 1.88417 31.9512 0 29.625 0H18.375C16.0488 0 14.1562 1.88417 14.1562 4.2V5.6H1.40625C0.623291 5.6 0 6.23875 0 7V37.8C0 40.1158 1.89258 42 4.21875 42H43.7812C46.1074 42 48 40.1158 48 37.8V7.02953V7.02406C47.9462 6.10458 47.3782 5.60547 46.6025 5.60036ZM16.9688 4.2C16.9688 3.42818 17.5997 2.8 18.375 2.8H29.625C30.4003 2.8 31.0312 3.42818 31.0312 4.2V5.6H16.9688V4.2ZM40.2755 21.4426L44.6426 8.4H3.35742L7.72449 21.4426C7.91602 22.0154 8.45215 22.4 9.05823 22.4H16.9688V21C16.9688 20.2267 17.5983 19.6 18.375 19.6H29.625C30.4017 19.6 31.0312 20.2267 31.0312 21V22.4H38.9418C39.5479 22.4 40.084 22.0154 40.2755 21.4426ZM28.2188 22.4V25.2H19.7812V22.4H28.2188ZM43.7812 39.2C44.5565 39.2 45.1875 38.5718 45.1875 37.8V15.6271L42.9437 22.3282C42.3688 24.0461 40.7604 25.2 38.9418 25.2H31.0312V26.6C31.0312 27.3733 30.4017 28 29.625 28H18.375C17.5983 28 16.9688 27.3733 16.9688 26.6V25.2H9.05823C7.23962 25.2 5.63123 24.0461 5.05627 22.3282L2.8125 15.6271V37.8C2.8125 38.5718 3.44348 39.2 4.21875 39.2H43.7812Z" fill="white"/>
</svg>
