<svg width="36" height="48" viewBox="0 0 36 48" fill="none" xmlns="http://www.w3.org/2000/svg">
<path fill-rule="evenodd" clip-rule="evenodd" d="M27 6H33C34.653 6 36 7.347 36 9V45C36 46.653 34.653 48 33 48H3C1.347 48 0 46.653 0 45V9C0 7.347 1.347 6 3 6H9V4.5C9 3.672 9.672 3 10.5 3H13.755C14.376 1.254 16.044 0 18 0C19.956 0 21.624 1.254 22.245 3H25.5C26.328 3 27 3.672 27 4.5V6ZM15 6H12V9H24V6H21C20.172 6 19.5 5.328 19.5 4.5C19.5 3.672 18.828 3 18 3C17.172 3 16.5 3.672 16.5 4.5C16.5 5.328 15.828 6 15 6ZM3 45V9H9V10.5C9 11.328 9.672 12 10.5 12H25.5C26.328 12 27 11.328 27 10.5V9H33V45H3ZM17.562 18.441C16.977 17.856 16.026 17.853 15.438 18.438L10.5 23.379L8.562 21.438C7.977 20.853 7.026 20.853 6.441 21.438C5.856 22.023 5.856 22.974 6.441 23.559L9.441 26.559C9.732 26.853 10.116 27 10.5 27C10.884 27 11.268 26.853 11.562 26.562L17.562 20.562C18.147 19.977 18.147 19.026 17.562 18.441ZM17.562 30.441C16.977 29.856 16.026 29.853 15.438 30.438L10.5 35.379L8.562 33.441C7.977 32.856 7.026 32.856 6.441 33.441C5.856 34.026 5.856 34.977 6.441 35.562L9.441 38.562C9.732 38.853 10.116 39 10.5 39C10.884 39 11.268 38.853 11.562 38.562L17.562 32.562C18.147 31.977 18.147 31.026 17.562 30.441ZM21 22.5C21 21.672 21.672 21 22.5 21H28.5C29.328 21 30 21.672 30 22.5C30 23.328 29.328 24 28.5 24H22.5C21.672 24 21 23.328 21 22.5ZM30 34.5C30 33.672 29.328 33 28.5 33H22.5C21.672 33 21 33.672 21 34.5C21 35.328 21.672 36 22.5 36H28.5C29.328 36 30 35.328 30 34.5Z" fill="white"/>
</svg>
