<svg width="48" height="37" viewBox="0 0 48 37" fill="none" xmlns="http://www.w3.org/2000/svg">
<path fill-rule="evenodd" clip-rule="evenodd" d="M32.5312 0C30.419 0 28.6645 1.57914 28.3597 3.63207L27.0769 4.9302C24.8442 7.18957 21.5562 8.53846 18.2812 8.53846H9.84375C8.01047 8.53846 6.44738 9.72825 5.86688 11.3846H5.625C2.52338 11.3846 0 13.9382 0 17.0769C0 20.2157 2.52338 22.7692 5.625 22.7692H5.86688C6.29128 23.9802 7.24088 24.9411 8.4375 25.3706V32.7308C8.4375 35.0848 10.3301 37 12.6563 37C14.9825 37 16.875 35.0848 16.875 32.7308V25.6154H18.2812C21.5561 25.6154 24.8441 26.9643 27.0769 29.2236L28.3597 30.5218C28.6645 32.5746 30.4191 34.1538 32.5313 34.1538C34.8575 34.1538 36.75 32.2387 36.75 29.8846V4.26923C36.75 1.91518 34.8575 0 32.5312 0ZM5.625 19.9231C4.07419 19.9231 2.8125 18.6463 2.8125 17.0769C2.8125 15.5076 4.07419 14.2308 5.625 14.2308V19.9231ZM12.6562 34.1538C13.4317 34.1538 14.0625 33.5155 14.0625 32.7308V25.6154H11.25V32.7308C11.25 33.5155 11.8808 34.1538 12.6562 34.1538ZM16.875 22.7692H9.84375C9.06834 22.7692 8.4375 22.1308 8.4375 21.3462V12.8077C8.4375 12.023 9.06834 11.3846 9.84375 11.3846H16.875V22.7692ZM19.6781 22.8337C22.8823 23.1285 25.9368 24.4213 28.3125 26.5021V7.65169C25.9368 9.73252 22.8823 11.0253 19.6782 11.32L19.6781 22.8337ZM33.9375 29.8846C33.9375 30.6693 33.3067 31.3077 32.5313 31.3077H32.5312C31.7558 31.3077 31.125 30.6693 31.125 29.8846V4.26923C31.125 3.48455 31.7558 2.84615 32.5313 2.84615C33.3067 2.84615 33.9375 3.48455 33.9375 4.26923V29.8846ZM44.7756 8.95533C44.2265 8.39966 43.336 8.39966 42.7868 8.95533L39.9743 11.8015C39.4252 12.3572 39.4252 13.2582 39.9743 13.814C40.5235 14.3698 41.414 14.3697 41.9631 13.814L44.7756 10.9678C45.3248 10.4121 45.3248 9.51109 44.7756 8.95533ZM42.375 17.0769H46.5938C47.3704 17.0769 48 17.7141 48 18.5C48 19.2859 47.3704 19.9231 46.5938 19.9231H42.375C41.5984 19.9231 40.9688 19.2859 40.9688 18.5C40.9688 17.7141 41.5984 17.0769 42.375 17.0769ZM41.9632 23.1861L44.7757 26.0323C45.3248 26.588 45.3248 27.489 44.7757 28.0448C44.2266 28.6005 43.336 28.6005 42.7869 28.0448L39.9744 25.1986C39.4252 24.6429 39.4252 23.7418 39.9744 23.1861C40.5236 22.6304 41.4141 22.6304 41.9632 23.1861Z" fill="white"/>
</svg>
