<svg width="48" height="32" viewBox="0 0 48 32" fill="none" xmlns="http://www.w3.org/2000/svg">
<path fill-rule="evenodd" clip-rule="evenodd" d="M7.96854 2.70004V0H48V32H7.96844V29.2706H4.93516C3.19741 29.2706 1.74916 28.0162 1.49163 26.2882L0.0385936 16.5376C-0.111969 15.5275 0.182312 14.5047 0.845969 13.7314C1.49641 12.9735 2.4355 12.5342 3.42916 12.519L3.42888 12.5176H3.48213H4.09047C3.40216 11.4959 2.99978 10.2648 2.99978 8.94115C2.99978 5.89739 5.128 3.34484 7.96854 2.70004ZM5.81228 8.94115C5.81228 10.412 6.7016 11.678 7.96854 12.2266V5.6557C6.7016 6.20431 5.81228 7.47028 5.81228 8.94115ZM7.96854 15.3412V20.6051L6.88319 15.3412H7.96854ZM4.93525 26.447H7.96863V23.8116H5.75772L4.01116 15.341H3.48222C3.21663 15.341 3.05153 15.4872 2.97681 15.5744C2.90106 15.6626 2.78003 15.8508 2.82016 16.1199L4.27319 25.8704C4.32307 26.2046 4.60141 26.4471 4.93525 26.4471V26.447ZM45.1875 29.1766H10.781V2.82352H45.1875V29.1766ZM16.4661 7.92468C16.536 7.96986 16.6061 7.99762 16.6761 8.00751C16.7461 8.01758 16.7962 8.02256 16.8262 8.02256V10.0253C16.5262 10.0253 16.2011 9.99526 15.8512 9.93493C15.5011 9.87479 15.1812 9.76938 14.8912 9.6188C14.6011 9.46811 14.3588 9.26256 14.1636 9.00138C13.9686 8.7404 13.8711 8.40421 13.8711 7.99245V5.8541H16.1811V7.42021C16.191 7.56092 16.2236 7.66868 16.2786 7.74398C16.3335 7.81927 16.3961 7.87951 16.4661 7.92468ZM20.4111 8.00751C20.3411 7.99762 20.271 7.96986 20.2012 7.92468C20.1311 7.87951 20.0686 7.81927 20.0137 7.74398C19.9586 7.66868 19.926 7.56092 19.9162 7.42021V5.8541H17.6061V7.99245C17.6061 8.40421 17.7036 8.7404 17.8986 9.00138C18.0937 9.26256 18.3361 9.46811 18.6262 9.6188C18.9162 9.76938 19.2361 9.87479 19.5862 9.93493C19.9361 9.99526 20.2612 10.0253 20.5612 10.0253V8.02256C20.5312 8.02256 20.4811 8.01758 20.4111 8.00751ZM37.335 22.2606C37.6249 22.4113 37.8675 22.6198 38.0627 22.8856C38.2577 23.1516 38.3552 23.4856 38.3552 23.887V26.0253H36.0451V24.4592C36.0351 24.329 36.0024 24.2235 35.9476 24.143C35.8926 24.0628 35.8299 23.9999 35.7601 23.9548C35.6901 23.9096 35.6199 23.882 35.5501 23.8719C35.4801 23.8621 35.4301 23.857 35.4001 23.857V21.8541C35.7001 21.8541 36.0249 21.8842 36.3751 21.9445C36.725 22.0046 37.0448 22.1101 37.335 22.2606ZM41.7976 22.8856C41.6025 22.6198 41.3599 22.4113 41.07 22.2606C40.7797 22.1101 40.4599 22.0046 40.11 21.9445C39.7598 21.8842 39.435 21.8541 39.135 21.8541V23.857C39.165 23.857 39.215 23.8621 39.2851 23.8719C39.3549 23.882 39.425 23.9096 39.495 23.9548C39.5648 23.9999 39.6275 24.0628 39.6825 24.143C39.7373 24.2235 39.77 24.329 39.78 24.4592V26.0253H42.0901V23.887C42.0901 23.4856 41.9926 23.1516 41.7976 22.8856ZM42.0903 7.90595H25.5002V10.7295H42.0903V7.90595ZM13.8714 14.4943H42.0904V17.3178H13.8714V14.4943ZM30.4615 21.0825H13.8714V23.906H30.4615V21.0825Z" fill="white"/>
</svg>
