<svg width="241" height="262" xmlns="http://www.w3.org/2000/svg" fill="none"><g fill="#fff"  transform="scale(-1 1)" transform-origin="120"><path d="M57.603 175.626c1.044-.412 1.75-1.268 2.25-2.146.749-1.312 1.706-2.476 2.418-3.804.713-1.329 1.505-2.617 2.266-3.916.191-.325.338-.715.62-.939.788-.63 1.044-1.59 1.611-2.349.167-.217.163-.587.355-.757 1.459-1.313 2.05-3.184 3.16-4.72.598-.826 1.019-1.751 1.407-2.729.62-1.561 1.238-3.188 2.473-4.445 0-1.046 1.38-1.383 1.307-2.465-.066-.985 1.131-1.285 1.205-2.218.027-.347.442-.663.467-1.01.09-1.238.747-2.142 1.611-2.934.865-.798 1.375-1.802 1.915-2.812.34-.631.379-1.445 1.228-1.807.653-.276.68-1.083 1.031-1.625.406-.632.652-1.37 1.094-1.972.352-.476.633-.892.68-1.52.064-.838.86-1.229 1.406-1.761.132-.126.745.034.747.208.01 1.387 1.123 2.355 1.392 3.673.244 1.169.85 2.263 1.19 3.431.075.268.218.518.36.761 1.223 2.121 2.013 4.48 3.58 6.424.159.202.139.537.24.799.136.345.345.671.465 1.023.357 1.066 1.322 1.773 1.553 2.978.187.973.972 1.825 1.45 2.747.526 1.004.985 2.039 1.511 3.038.396.755.776 1.534 1.436 2.119.213 1.731 1.488 3.021 1.991 4.647.471 1.514 1.141 2.965 1.806 4.411.354.767.834 1.473 1.34 2.173 1.212 1.685 2.244 3.498 3.421 5.207.498.73.37 1.723.964 2.309.583.567.851 1.27 1.234 1.917.667 1.135.971 2.423 1.422 3.65.293.792.502 1.626 1.164 2.235.184.171.318.23.468.085.281-.266.569-.526.839-.804 1.289-1.323 1.283-1.317.118-3.092-.259-.392-.452-.832-.693-1.236-.537-.885-.766-1.935-1.575-2.685-.704-.656-.347-1.886-1.324-2.455-.183-.106-.253-.5-.281-.768-.082-.848.157-1.76-.597-2.451.233-.857-.357-1.55-.757-2.09-.504-.676-.211-1.57-.823-2.102-.624-.543-.952-1.179-.943-1.998a14.406 14.406 0 0 1-2.298-2.905c-.099-.16-.319-.259-.393-.426-.422-.934-.682-1.977-1.262-2.802-.602-.866-1.224-1.649-1.399-2.741-.099-.621-.577-1.171-.832-1.778-.324-.774-.967-1.383-.984-2.321-.014-.789-1.15-1.034-1.16-1.907-.721-.608-.672-1.565-.94-2.339-.477-1.382-1.011-2.644-2.132-3.624-.294-.26-.479-.581-.484-.999-.01-.849.193-1.778-.668-2.378-.739-.506-.314-1.497-.913-2.029-.888-.791-1.106-1.979-1.783-2.886-.93-1.24-.97-2.65-.853-4.092.011-.15.214-.415.324-.41.26.015.582.084.754.255.184.183.164.578.354.756.502.46.163 1.134.509 1.608.332.463.689.907 1.02 1.37.598.843 1.226 1.649 1.437 2.717.103.525.537.986.84 1.461.203.315.656.621.64.908-.04.825.731 1.367.673 2.151-.053.724.153 1.313.729 1.774.61.489.934 1.179 1.341 1.832.414.66.277 1.444.763 2.114.345.475.89 1.049.771 1.804-.028.167.065.376.157.53.334.558 1.107.843 1.013 1.663-.077.7.564 1.142.663 1.852.112.788.937 1.473 1.067 2.266.137.824.44 1.412 1.003 1.98.54.538.157 1.493.926 2.029.623.43 1.061 1.07 1.378 1.796.299.685.615 1.387 1.246 1.906.238.195.122.776.344 1.037.639.758.181 2.144 1.482 2.518.122.035.222.303.248.476.328 2.244 1.241 4.285 2.142 6.344.418.946.664 1.953 1.49 2.662-.374 1.199.957 1.574 1.228 2.479.246.829.909 1.055 1.776 1.183 1.391.206 1.832.094 1.716-1.154-.136-1.38.808-2.513.599-3.91-.189-1.23-.07-2.498-.072-3.753-.003-.281-.037-.646.119-.827.575-.675.372-1.456.418-2.21.071-1.214-.331-2.489.433-3.621-.7-.794-.41-1.514.01-2.362.314-.637-.065-1.5.491-2.187.204-.247.114-.73.14-1.107.057-.844-.024-1.656.438-2.498.327-.601.094-1.501.109-2.267.025-1.04-.181-2.09.5-3.054.185-.259.058-.754.036-1.136-.038-.699-.619-1.159-1.283-.883-.778.325-1.538.136-2.301.162-.6.024-1.302-1.008-.955-1.418.55-.64.122-1.562.789-2.107.15-.121.3-.242.45-.358.105.131.277.254.296.392.06.477-.001.974.119 1.433.038.155.544.365.706.292.428-.202.698-.42 1.253-.115.568.316 1.343.332 1.939-.063.427-.286.661.041.989.073 1.329.135 2.69.432 3.966-.281.634-.354 1.333-.134 1.999-.207.569-.06 1.207.023 1.701-.198.597-.269.079-1.094.51-1.547.09-.097.1-.306.086-.462-.008-.119-1.315-.47-1.508-.426-1.457.315-1.463.339-3.882-.209-.571-.132-.93.745-1.543.183-.398-.36-.935-.163-1.408-.164-1.17-.005-2.345.043-3.514.038a6.02 6.02 0 0 1-1.136-.138c-.231-.045-.306-.247-.217-.47.065-.162.141-.402.268-.445.803-.259 1.728.065 2.478-.648.275-.266.938-.136 1.348.219.324.277.711.267 1.105.233.582-.048.944-.733 1.607-.537.541.161 1.07.365 1.617.491.273.062.625.089.867-.022.615-.281 1.171-.359 1.799-.013.208.118.565 0 .849-.051.985-.178 2.038.116 2.408.74a1.9 1.9 0 0 1 .245.798c.043.574.062 1.159.031 1.733-.035.646.325 1.432-.306 1.893-.426.315-1.157.042-1.595.531-1.331.104-2.613.446-3.9.771-.266.068-.69.091-.843-.063-.773-.781-1.397-.23-2.072.13-.748.396-.938 1.152-1.119 1.841-.169.636.108 1.487-.227 1.951-.514.711.253 1.02.199 1.535-.045.377.161.883-.024 1.136-.693.952-.554 2.014-.525 3.042.046 1.357.018 2.666-.825 3.823-.106.15-.244.331-.254.499-.047.67.082 1.38-.1 2.009-.151.534-.509.986-.491 1.608.03 1.129.097 2.228-.435 3.358-.338.715-.066 1.704-.088 2.571-.012.562.037 1.094-.29 1.659-.548.951-.275 2.03-.119 3.062.013.072.123.131.191.196.066-.073.156-.134.191-.218.407-1.068.893-2.089 1.799-2.852a.668.668 0 0 0 .192-.218c.88-2.143 2.613-3.71 3.848-5.618 1.234-1.902 2.534-3.763 3.804-5.642.103-.161.186-.332.249-.511.913-2.425 2.778-4.268 4.051-6.47.232-.397.595-.418.884-.631.307-.224.77-.576.749-.839-.092-1.164.763-1.712 1.409-2.4 1.325-1.395 2.117-3.143 3.234-4.679.328-.452.632-.934 1.003-1.368.252-.296.673-.551.736-.881.31-1.599 1.627-2.552 2.437-3.822.763-1.192 1.396-2.519 2.556-3.435 1.216-2.457 3.408-4.328 4.306-6.968.258-.75 1.2-1.041 1.185-1.92-.004-.322.77-.498.197-.869-.159-.099-.569.036-.774.182-.433.322-.906.297-1.391.302-1.466.028-2.927.037-4.393.089-.945.034-1.961-.314-2.783.49-.096.096-.417.094-.545.006-1.35-.883-2.858-.233-4.273-.445-.564-.084-1.197.192-1.705-.161-.391-.271-.62-.197-.993.028-.301.183-.737.188-1.114.192-3.417.036-6.836.049-10.253.097-.607.007-1.147-.041-1.636-.449-.11-.088-.413-.079-.545.006-1.433.924-3.032.439-4.547.473-1.218.031-2.535.452-3.689-.385-.123-.088-.45-.097-.546-.006-.738.695-1.712.263-2.497.553-.743.277-1.36.361-2.098.022-.481-.222-.881.291-1.316.397-.254.062-.709-.566-1.016-.33-.932.709-1.758.581-2.643-.026-.129-.088-.387.029-.576-.011-.529-.114-.888.822-1.538.183-.404-.396-1.11-.083-1.641-.466-.36-.259-.913.267-1.474-.158-.435-.33-1.08.018-1.61.34-.288.177-.864.249-1.095.078-.795-.566-1.648-.467-2.515-.458-1.465.012-2.93.012-4.395-.001-.333-.002-.568-.394-.53-.873.032-.401.112-.778.622-.789 3.127-.046 6.248-.067 9.374-.124.516-.012.924.169 1.368.379.324.158.777.04 1.124.168.609.214.98-.674 1.549-.304.543.353 1.117.257 1.694.263.587.006 1.175.006 1.756-.043 1.133-.089 2.319.275 3.389-.508.319-.231.945-.064 1.43-.075 3.708-.058 7.423-.109 11.132-.167.667-.013 1.353.117 1.935-.409.343-.303.709-.032 1.045.174 1.08.67 2.018-.069 2.996-.325.856.601 1.784.746 2.7.204.488-.286.845-.313 1.303.01.202.142.615.263.777.16 1.193-.748 2.357-.737 3.552-.05.08.047.182.052.273.08.762.267 1.194-.592 1.88-.534.528.048.911.821 1.561.3.222-.181.421-.297.727-.073.506.371 1.058.413 1.618.072.151-.091.391-.273.458-.226 1.271.853 2.67.211 3.993.346 1.025.109 2.107-.178 3.071.404.846-.733 1.863-.307 2.808-.419.411-.052.741.112 1.052.377.319.272.589.628.369.983-.613.981-.698 2.118-1.068 3.174-.029.09.008.227-.045.275-1.092.998-1.398 2.472-2.265 3.611-1.087 1.434-1.954 3.004-3.108 4.409-.885 1.074-1.361 2.478-2.149 3.646-.334.494-1.059.669-1.288 1.376-.169.522-.65.928-.972 1.392-1.409 2.011-2.433 4.258-3.95 6.211-.927 1.188-1.523 2.617-2.694 3.646-.216.187-.444.405-.568.657-.617 1.292-1.214 2.62-2.392 3.499-1.131.843-1.406 2.293-2.481 3.147-.151.121-.349.273-.371.435-.346 2.173-2.491 3.308-3.142 5.3-1.317 1.508-2.255 3.276-3.34 4.937-.405.626-1.277.743-1.419 1.629-.102.611-.763 1.132-.896 1.75-.179.827-1.078 1.129-1.215 1.914-.085.491-.503.495-.823.69-.349.219-.295.691-.068.993.498.646 1.317.745 1.947 1.169.097.065.412-.034.513-.155.533-.645.545-1.686 1.329-2.089.783-.403.645-1.387 1.387-1.736.572-1.435 1.884-2.352 2.645-3.687.458-.794 1.141-1.507 1.653-2.313.351-.554.652-1.322 1.165-1.537.687-.288.626-.921 1.022-1.29.505-.466.959-.967.854-1.731a.414.414 0 0 1 .064-.27c.532-.675 1.069-1.344 1.608-2.013-.174-.913.695-1.317.984-1.99.355-.834 1.04-1.368 1.517-2.066 1.014-1.488 1.869-3.087 3.177-4.362.189-.911.954-1.409 1.517-2.055.191-.217.48-.394.58-.646.655-1.621 1.939-2.806 2.906-4.204.954-1.379 1.921-2.776 2.772-4.244.653-1.13 1.479-2.185 2.194-3.293.102-.157.19-.391.329-.428 1.516-.423 1.889-1.802 2.519-2.938.41-.746.619-1.615 1.309-2.178.738-.603 1.5-1.175 2.285-1.716.24-.153.517-.24.803-.254 1.236-.067 2.524.26 3.655-.577.192-.14.574-.072.866-.045 1.317.129 2.458-.289 3.529-1.012.505-.34.511-.287.422-1.32-.069-.764.001-1.548-.111-2.306-.046-.335-.395-.624-.604-.932-.16-.238-.275-.207-.461-.007-.552.573-1.334.486-1.918.289-.986-.336-1.991-.786-2.601-1.718-.148-.225-.267-.541-.233-.792.214-1.467 1.318-2.471 2.063-3.663.137-.217.72-.157 1.088-.245.182-.043.327-.625.18-.737-.14-.106-.361-.253-.488-.21-.356.118-.661.39-1.012.477-.593.144-1.17.049-1.569-.479a.977.977 0 0 1-.163-.447c-.006-.048.138-.157.222-.164 1.036-.118 2.068.032 3.098-.529.597-.329 1.508-.171 2.187.407.245.201.794.022 1.081.204.476.3.27.882.281 1.336.057 3.467.07 6.94.133 10.406.014.705-.169 1.263-.647 1.818-.724.839-.671 1.215-.111 2.01.437.617.844 1.253 1.269 1.882-.186 1.191.86 2.125.727 3.28-.11.934.382 1.646.687 2.425.144.364.648.454.96.146.636-.629 1.359-.977 2.254-1.154.436-.089.843-.499 1.341-.391 1.131.245 1.987-.637 3.054-.655.952-.016 1.954.165 2.789-.531.12-.097.4.031.568-.042.676-.277 1.183.579 1.865.237.499-.257 1.006-.495 1.513-.74.453.515.788.087 1.217-.079.44-.172.968-.159 1.366.213.183.171.305.188.486.061.968-.674 2.081-.232 3.123-.363.595.646 1.182.03 1.776.005a2.026 2.026 0 0 0 1.309-.522c1.039.79 2.264.281 3.375.49.548.102 1.072.419 1.548.731.464.306.872.409 1.297.016.198-.181.331-.219.479-.005.554.771 1.422.857 2.26 1.076 1.369.368 2.667.958 3.951 1.548.262.122.539.478.739.434 2.285-.52 3.446 1.392 5.062 2.271.81.44 1.312 1.415 2.463 1.301.206-.02.555.293.648.531.61 1.5 2.019 2.286 3.02 3.435.521.599 1.264.872 1.815 1.362.459.407.601 1.159.904 1.742.087.166.246.296.387.432.9.887 1.759 1.816 2.708 2.637.881.768 1.167 1.96 2.144 2.661.624.448 1.151 1.046 1.655 1.633.491.568.826 1.282 1.354 1.808.624.616.689 1.559 1.482 2.077.642.418 1.134 1.052 1.703 1.584.582.544 1.091 1.106.937 1.992-.034.18-.044.425.055.562 1.146 1.655 1.464 3.649 2.29 5.439.584 1.267 1.283 2.533 1.292 3.992.002.681.753 1.121.585 1.87-.139.618.249 1.08.533 1.585.124.22.159.686.015.837-.641.658-.095 1.202.111 1.768.093.262.48.658.431.701-.755.767.227 1.354.199 2.066-.095 2.309.002 4.621.021 6.934.005.383.04.771-.242 1.085-.389.434-.191.791.002 1.279.486 1.202.402 3.415-.088 4.718-.111.294-.193.564-.009.789.27.338.377.612.041.968a.58.58 0 0 0-.027.783c.565.688.596 1.357.095 2.097-.149.217-.182.534-.209.81-.1.927.306 1.933-.443 2.76 1.003.803-.207 1.557-.053 2.284.198.967-.559 1.585-.634 2.446-.076.82-.443 1.613-.701 2.411-.053.168-.304.41-.262.463 1.039 1.328-.353 2.024-.779 2.961-.077.169-.342.291-.352.447-.059 1.274-1.018 2.234-1.236 3.426-.091.503-.226.905-.586 1.256-.618.598-1.394 1.109-1.213 2.153.013.077-.053.186-.113.252-.508.585-1.291 1.096-1.459 1.761-.186.738-.42 1.457-.752 2.119-.25.498-.718.898-1.12 1.315a98.987 98.987 0 0 1-2.865 2.894c-.461.447-.614.933-.583 1.548.024.472-.039.856-.617 1.131-.586.275-1.095.789-1.526 1.301-.669.803-1.345 1.635-1.833 2.549-.481.913-1.874.994-1.944 2.268-.015.287-.466.71-.786.792-1.148.305-1.75 1.226-2.378 2.034-2.288 2.953-2.252 2.983-5.481 4.183-.526.197-1.131.257-1.594.543-.482.298-.877.769-1.254 1.209-.533.621-1.127 1.076-2.008.906-1.197-.232-2.117.932-3.327.628-1.003.823-2.199.591-3.351.585-.624-.005-1.157.09-1.545.615-.389.53-.977.482-1.552.608-1.3.277-2.561.769-3.932.622-1.138.706-2.413.54-3.655.577-.097.001-.194.002-.29.015-.757.098-1.283.743-2.169.669-.728-.064-1.13-.717-1.886-.644-1.066.107-2.145.077-3.218.059-.37-.008-.844-.045-1.076-.264-.771-.709-1.455-1.18-2.564-.528-.439.261-1.069-.234-1.49-.528-.636-.448-1.289-.327-1.955-.314-.899.93-1.839.324-2.566-.14-.696-.447-1.524-.241-2.153-.742-.594-.472-1.318-.166-1.985-.206-1.244-.077-2.371-.698-3.621-.727-.686-.722-1.693-.185-2.473-.619-.744-.417-1.542-.749-2.316-1.111-.256-.117-.525-.311-.784-.309-1.752.025-3.036-.995-4.427-1.811-.982-.576-2-1.091-3.024-1.594-.853-.421-1.82-.668-2.441-1.445-.583-.729-1.767-.818-2.039-1.867-.952-.617-1.892-1.265-2.863-1.852-.61-.37-1.111-.772-1.09-1.549.009-.311-.103-.639-.376-.689-1.306-.243-1.604-1.4-1.881-2.318-.271-.911-.519-1.519-1.517-1.819-.651-.202-1.07-.813-.975-1.603.111-.886-.081-1.769-.633-2.427-.75-.894-1.13-1.936-1.59-2.954-.466-1.029-.83-2.155-1.524-3.02-.726-.907-.157-2.067-.96-2.955-.607-.675-1.146-1.644-1.198-2.51-.067-1.171-.927-2.124-.727-3.31-.702-1.015-.575-2.17-.649-3.311-.058-.932-.704-1.732-.618-2.737.087-.957.003-1.925-.02-2.887-.009-.281.012-.64-.148-.818-.607-.651-.133-1.642-.545-2.152-.682-.835.197-1.383.093-2.099-.165-1.134-.081-2.307-.039-3.461.032-.933-.173-1.899.467-2.773.323-.434-.749-.859-.15-1.522.257-.29.165-.905.19-1.377.041-.754-.016-1.465.425-2.211.303-.511-.028-1.357.19-1.963.253-.708.463-1.415.631-2.147.081-.359.399-.697.388-1.038-.038-1.362.445-2.587.899-3.829.122-.348.204-.726.236-1.091.048-.574.03-1.154.041-1.734.005-.096-.008-.233.051-.27.734-.527.257-1.497.796-2.1.527-.586-.017-1.584.808-2.065.355-1.265 1.034-2.403 1.475-3.645.429-1.218 1.326-2.274 2.048-3.381.208-.319.514-.556.516-.986.008-.903.589-1.567 1.029-2.289.292-.481.602-.957.881-1.444.476-.824.897-1.665 1.661-2.307.582-.491 1.158-1.041 1.081-1.937-.014-.155.141-.443.255-.463 1.308-.235 1.494-1.432 1.945-2.31.51-.986 1.205-1.836 2.096-2.312.814-.433 1.346-1.072 1.995-1.623.365-.315.639-.82 1.055-.986 1.497-.596 2.287-2.021 3.606-2.83 1.366-.84 2.499-2.018 4.05-2.638 1.413-.559 2.707-1.392 4.093-2.022.422-.19.62-.402.616-.814 0-.484.128-1.042-.076-1.428-.867-1.629-.474-3.366-.578-5.063-.036-.58.018-1.16-.055-1.733-.053-.436-.478-.981-.323-1.252.488-.86-.248-1.079-.662-1.218-.524-.18-1.153-.078-1.741-.066-.181.002-.484.065-.513.167-.321 1.062-1.696 1.13-2.048 2.228-.311.978-.785 1.951-1.394 2.771-.848 1.145-1.574 2.384-2.641 3.394-.822.774-1.35 1.843-2.141 2.653-.822.84-1.454 1.749-1.884 2.83-.425 1.074-1.759 1.537-1.952 2.782-1.846 2.399-3.613 4.857-5.149 7.468-.285.487-.76.875-1.173 1.28-1.391 1.348-2.392 2.961-3.222 4.679-.497 1.034-.99 2.049-1.884 2.818-.588.508-.902 1.217-1.337 1.832-.818 1.162-1.722 2.278-2.612 3.393-1.656 2.062-3.074 4.313-4.578 6.487-.16.229-.236.517-.386.752-.405.644-.822 1.276-1.239 1.908.747.667.357 1.622.62 2.414.703 2.139.676 2.42.146 4.399a5.65 5.65 0 0 0-.184 1.394c-.018 1.202-.346 2.144-1.552 2.767-.663.342-1.147 1.034-1.686 1.59-.509.526-1.448.595-1.602 1.488-.737.223-1.041.668-.966 1.469.083.86.02 1.733-.002 2.6-.012.568.155 1.314-.145 1.664-.586.693.266 1.013.181 1.522-.017.096.039.209-.003.287-.796 1.527-.439 3.173-.487 4.77-.013.484-.013.95-.362 1.348-.316.363-.149.713.109 1.022.344.414.442 1.005.191 1.343-.52.699-.426 1.445-.461 2.198-.055 1.125.244 2.299-.491 3.335-.065.097.041.377.139.519.228.32.541.676.272 1.025-.681.868-.337 1.851-.405 2.784-.031.455-.273 1.133.214 1.325.688.274 1.364 1.109 2.099.695 1.067-.597 1.972.212 2.977.052.992-.154 1.817.471 2.569 1.073.11.088.21.392.163.44-.348.351-.23.612.028.962.154.202.256.619.148.8-.684 1.149-.434 2.408-.523 3.628-.042.592-.744 1.21-1.418 1.163-1.031-.073-2.136.34-3.091-.481-.189-.166-.819-.063-1.089.131-.986.692-2.082.279-3.11.422-1.038-.683-2.219-.485-3.358-.562-.546-.036-1.065-.359-1.606-.521-1.417-.415-1.957-.965-1.492-2.22.489-1.314.432-2.605.484-3.927.03-.681.592-1.297 1.222-1.364.097-.007.194-.014.29-.015.194-.002.394-.016.588-.006 2.832.089 3.272-.154 3.113-3.016-.046-.843-.231-1.725.403-2.497.15-.187.097-.545.106-.826.044-.939-.197-1.905.496-2.762.192-.241.084-.748.049-1.124-.077-.932.246-1.933-.461-2.763.616-.736.426-1.606.428-2.449.002-.963-.075-1.936-.001-2.888.09-1.119-.419-2.315.387-3.351-.37-.576-.497-1.071-.08-1.781.298-.511.052-1.31.166-1.963.188-1.09-.213-1.689-1.237-2.198-.84-.416-1.385-1.468-2.237-1.776-.858-.313-1.929-.057-2.904-.052-.588 0-1.17-.018-1.758-.012-.454.005-.652.247-.695.689-.213 2.173.557 4.406-.401 6.533.9 1.413.365 2.985.497 4.478.084.961.106 1.912-.521 2.737.136.776-.766 1.527-.053 2.338.061.071-.069.36-.164.504-.716 1.072-1.043 2.247-.901 3.513.14 1.23-.346 2.215-1.056 3.15-.174.229-.414.428-.532.681-.327.679.119 1.499-.522 2.169-.581.61-.949 1.409-1.468 2.084-.466.603-.597 1.412-1.271 1.891-.336.243-.338.679-.303 1.061.089.884-.287 1.51-1.108 1.794-.452.154-.644.407-.615.819.063.819-.116 1.508-.777 2.059-.518.43-.789 1.067-1.183 1.585-.848 1.139-1.427 2.478-2.586 3.417-.487.394-.813 1.055-1.06 1.661-.437 1.069-1.302 1.855-1.806 2.871-.041.078-.132.181-.21.194-1.259.222-1.637 1.613-2.761 1.996-.711.241-1.021.758-1.269 1.43-.223.612-.604 1.184-1.018 1.703-.346.434-.704.928-1.39.935-1.17.007-1.595.926-2.131 1.715.339 1.132-.684 1.262-1.3 1.58-.83.433-1.655.98-2.693.866-.485-.055-.693.312-.658.73.055.681-.296 1.187-.828 1.408-1.598.68-3 1.64-4.321 2.73-.319.26-.67.312-1.044.418-.907.254-1.812.551-2.662.949-.875.41-1.965-.051-2.738.746-.144.145-.69.151-.83.009-.558-.55-1-.007-1.498.016a11.137 11.137 0 0 0-4.405 1.111c-.453.22-.89.153-1.383-.027-1.375-.505-1.885-.577-3.024-.051-.694.324-1.563.1-2.144.788-.162.187-.877.207-1.078.023-.674-.602-1.431-.498-2.207-.508-.848-.009-1.766.318-2.502-.404-.48.346-1.125.7-1.577.394-.812-.554-1.654-.479-2.514-.458-.842.027-1.39-.607-2.09-.892-.522-.21-.88-.236-1.306.104-.506.406-.909.099-1.259-.256-.606-.609-.94-.761-1.8-.644-.854.11-1.39-.117-1.775-.986-.342-.767-.681-.775-1.628-.323-.423.202-.731.181-1.056-.078-.52-.413-.944-.899-1.743-.914-.843-.021-1.252-.86-1.792-1.38-.6-.573-1.167-.98-2.045-.857-.26.039-.594-.059-.809-.206-.781-.542-1.319-1.415-2.303-1.692-.228-1.354-1.944-1.461-2.334-2.701-.075-.244-.368-.444-.6-.621-2.22-1.752-3.587-4.272-5.71-6.108-.603-1.363-1.77-2.241-2.812-3.24-.263-.254-.383-.653-.617-.944-.946-1.191-1.646-2.547-2.815-3.592-.698-.621-1.18-1.482-1.71-2.266-.147-.213-.2-.542-.185-.811.07-.933-.436-1.693-.928-2.333-.554-.718-1.04-1.358-.941-2.292.05-.437-.268-.708-.538-.974-.95-.941-1.338-2.078-1.207-3.371.132-1.281-1.031-2.267-.766-3.561-.936-.761-.115-2.121-1.015-2.894-.035-1.052-.065-2.104-.112-3.155-.032-.658.1-1.358-.452-1.902-.067-.065-.147-.16-.148-.244-.027-.771-.029-1.542-.061-2.313-.034-.753-.035-1.464-.42-2.207-.321-.624-.064-1.512-.213-2.258-.108-.572.731-.946.239-1.532-.522-.623.049-1.041.274-1.534.077-.162.032-.383.018-.574-.106-1.368.08-2.661.946-3.794.298-.386.126-.707-.12-1.021-.252-.32-.322-.618-.096-1.033.581-1.076.659-2.362 1.453-3.351-.018-1.142.985-2.079.662-3.295-.102-.382.003-.789.334-1.044.673-.521.64-1.328.942-2.001.42-.919.462-2.007 1.326-2.782.445-.399.618-1.154.768-1.783.244-1.049.658-1.98 1.456-2.718.503-.466.965-.925.92-1.702-.014-.233.226-.51.404-.721.623-.712 1.483-1.295 1.295-2.429.675-.922 1.307-1.873 2.043-2.748.443-.525.728-1.03.902-1.725.22-.887.66-1.765 1.435-2.425.57-.49 1.256-.928 1.422-1.766.092-.45.62-.372.904-.602.365-.297.792-.57.768-1.144-.023-.514.265-.744.673-1.089 1.316-1.09 2.77-2.098 3.504-3.75.148-.336.491-.597.761-.869.341-.344.646-.796 1.062-.98 1.78-.772 3.004-2.327 4.71-3.194.428-.22.77-.582 1.316-.505.741.106 1.32-.169 1.787-.736.568-.682 1.322-.953 2.168-1.255.851-.308 1.504-.99 2.57-1.067.788-.057 1.533-.692 2.298-1.071 1.683.383 2.748-1.333 4.344-1.26.078.005.168-.085.253-.134 2.56-1.414 3.465-1.759 5.745-2.238.363-.075.694-.294 1.056-.405 1.462-.44 2.88-1.035 4.483-.819.656.088 1.295-.158 1.954-.35 1.467-.434 3.049-.583 4.528.059.59.257 1.106.317 1.63-.023.265-.17.494-.257.716.01.54.64 1.214.77 2.046.857.807.081 1.559.635 2.344.961.712.298 1.81-.085 1.888-.827.192-1.843 1.766-3.139 1.854-4.987 1.206-1.167 1.185-2.942 2.16-4.232.747-.982.66-2.297 1.509-3.31.771-.917 1.17-2.129 1.899-3.141.704-.982 1.219-2.123 2.028-3.052.346-.404.468-.836.416-1.32-.127-1.039.227-1.843 1.05-2.504.553-.448.935-.966.315-1.707-.21-.255-.208-.721-.219-1.092-.04-1.446.029-2.899-.084-4.333-.111-1.397.345-2.891-.585-4.19-.092-.131-.034-.376-.037-.568a1452.29 1452.29 0 0 0-.091-7.226c-.004-.406.064-.76.376-1.038.144-.127.289-.29.457-.34.073-.025.33.218.313.308-.125.736.51 1.232.578 1.877.088.86.044 1.733.059 2.599.03 1.542.203 3.101.039 4.621-.11 1.023.736 1.923.202 2.921.756.925.434 2.022.482 3.056.073 1.631.072 3.269.108 4.9 0 .078.099.179.179.22.055.023.162-.032.23-.075.793-.594 1.507-1.211 1.306-2.369-.097-.561-.11-1.146.345-1.63a.57.57 0 0 0 .017-.783c-.59-.663-.404-1.448-.425-2.201-.02-.771-.107-1.553-.013-2.307.078-.617-.97-1.12-.14-1.762-1.047-1.49-.314-3.183-.562-4.771-.118-.74.062-1.501-.467-2.201-.277-.361-.1-.877.082-1.358.283-.744-.408-1.8-1.075-1.8a286.51 286.51 0 0 0-5.562.066c-.57.012-1.202-.13-1.695.25-.71.553-1.157-.435-1.851-.23-.538.16-1.17-.006-1.746.054-.901.094-1.698-.143-2.478-.56-.5-.263-.947-.646-1.595-.574-.502.053-.634-.328-.644-.746-.034-1.35-.115-2.7-.081-4.046.025-1.03-.198-2.06.445-3.078.31-.493.081-1.31.112-1.98.014-.28-.045-.7.118-.82 1.057-.8.948-2.013 1.214-3.098.227-.916.96-1.39 1.733-1.716.863-.362 1.908-.128 2.732-.704.054-.043.183.016.273.026 1.482.23 1.482.23 1.461-1.073a552.778 552.778 0 0 1-.047-3.18c-.002-.191-.04-.4.018-.574.252-.768-.607-1.147-.627-1.853-.013-.68.09-1.292.44-1.87-.843-.642.327-1.127.138-1.788-.176-.626-.027-1.34-.028-2.015.913-.655-.017-1.554.284-2.244.33-.757.268-1.522.188-2.256-.1-.842.664-1.364.6-2.17-.056-.747-.198-1.547.43-2.181.06-.06.107-.18.09-.258-.298-1.647.856-3.118.588-4.765-.045-.268-.03-.621.119-.826 1.182-1.674 1.037-3.777 1.878-5.574.426-.913.324-2.024.828-2.962.494-.907 1.151-1.74 1.188-2.858.008-.317.435-.608.643-.927.155-.235.401-.5.386-.734-.105-1.332.714-2.327 1.169-3.455.242-.607.77-1.127.609-1.86.73-1.526 1.19-3.157 2.017-4.655.356-.637.791-1.263.849-2.077.047-.682.233-.744.585-.347.546.61 1.352.72 1.958 1.187 1.655.042 2.878 1.493 4.627 1.343.49-.041 1.03.45 1.547.7 1.195.586 2.455 1.075 3.566 1.786.799.512 1.669.173 2.503.54.828.369 1.316 1.165 2.161 1.389.455.12.917.17 1.379.326 1.065.365 2.194.55 3.3.778.383.08.813-.41.616-.73-.37-.6-.715-1.152-.092-1.78-.046-1.925.815-3.638 1.268-5.448.058-.24-.006-.574.388-.47.11.028.144.32.212.493.087.232.222.32.384.23.169-.092.313-.25.493-.305.774-.253 1.57 1.077 2.346-.02.775-.037 1.557-.141 2.327-.095 1.134.07 2.335-.408 3.416.328.079.053.326-.076.471-.16.548-.317 1.093-.33 1.642-.006.683.405 1.159-.467 1.852-.271.535.155 1.156-.12 1.694.25.122.089.377.152.473.09.74-.515 1.397-.402 2.159.026.371.21.94.098 1.42.128a.673.673 0 0 0 .284-.04.476.476 0 0 0 .234-.162c.024-.043-.02-.174-.075-.215-.293-.236-.575-.508-.91-.672-1.28-.626-2.589-1.192-3.857-1.835-.165-.082-.218-.482-.214-.74-.001-.095.293-.272.452-.267 1.06.012 1.964.6 2.972.835.433.718 1.378.69 1.899 1.24 1.049 1.107 2.577 1.18 3.857 1.783.469.222 1.178.232 1.689-.132.379-.273.603-.204.999-.028.226.099.657-.372.985-.358 1.559.073 2.675-.93 3.959-1.5.664-.3.97-1.123.557-1.716-.868-1.258-.434-2.596-.467-3.905-.009-.275.414-.351.588-.526.498-.496 1.822-.27 1.556-1.29-.196-.757-1.187-.406-1.811-.381-.818.032-1.359-.703-2.2-.622-.291.027-.629-.382-.946-.594-.239-.16-.49-.455-.721-.44-.769.037-1.282-.322-1.773-.83-.405-.42-.791-.89-1.279-1.177-.47-.276-1.095-.3-1.6-.532-2.102-.952-4.078-2.091-5.744-3.711-.613-.591-1.125-1.37-2.184-1.232-.152.02-.341-.164-.494-.27-1.448-1.03-6.748-4-8.452-4.626-.875-.326-1.812-.543-2.735-.706-1.215-.215-2.348-.77-3.655-.59-1.15.163-2.339.08-3.509.086-.4.005-.726.134-1.087.305a20.148 20.148 0 0 0-4.563 2.882c-1.093.926-2.419 1.586-3.303 2.76-.263.35-.229.715-.206 1.097-.15.062-.357.088-.435.197-.107.15.04.298.197.2.114-.072.142-.276.207-.426.979.199 1.569-.615 2.36-.898.712-.253.997-.25 1.476.33.271.333.348.685.042 1.029-.508.567-.957 1.164-1.797 1.382-1.782.46-2.286 2.128-3.143 3.447.128.794-.49 1.2-.904 1.72-1.16 1.44-2.706 2.43-4.21 3.452-1.636 1.105-3.292 2.18-5.275 2.668-.725.175-1.436.548-2.061.967-.602.4-1.195.575-1.898.558-.582-.018-1.145.018-1.637.436-.187.158-.551.084-.822.164-.484.149-.705-.686-1.27-.29-.386.266-.82.528-1.272.64-1.282.307-2.45 1.079-3.864.902-.758-.093-1.547-.12-2.213.46-.18.158-.557.12-.842.123-1.757.025-3.515.026-5.272.056-.503.012-.958-.055-1.361-.38a.636.636 0 0 0-.801-.015c-1.125.825-2.143.256-3.25-.12-2.196-.742-3.223-2.597-4.484-4.257-.038-.76-.29-1.587-.06-2.26.363-1.055 1.044-2.007 1.59-3 .725-1.316 2.228-1.38 3.372-2.014.15-.085.382-.022.582-.024.097 0 .242-.044.285.01.798.917 2.051.228 3.004.864.574.388 1.28.787 2.111.814.638.017 1.13.753 1.88.56 2.007 1.162 3.913.335 5.754-.396.96-.381 2.03-.632 2.853-1.203.873-.607 1.814-1.035 2.71-1.57a3.08 3.08 0 0 1 1.632-.473c1.563-.01 3.126-.087 4.685-.014 1.03.049 1.948.72 3.073.523.678-.12 1.252-.204 1.847-.641.908-.673 1.97-1.145 2.963-1.706 1.39.23 1.426-.965 1.86-1.73.042-.071.023-.197-.015-.28-.037-.083-.16-.22-.183-.207-1.64.794-3.402.395-5.11.497-.661.037-1.291.008-1.956-.356-.538-.293-1.312-.19-1.985-.206-.77-.022-1.508.058-2.229-.43-.775-.53-1.437.54-2.147.405-.626-.125-1.208-.74-1.883-.344-.524.31-1.035.59-1.625.477-1.22-.244-2.281.335-3.326.7-.93.32-1.818.539-2.789.53-1.072 0-2.151.048-3.224.036-.673-.011-1.4.05-2.007-.176-1.327-.488-2.848-.418-4.01-1.368-.275-.224-.784-.153-.892-.612-.305-1.312-1.726-2.056-1.826-3.466-.071-.98.626-2.051 1.725-2.362.562-.161 1.1-.292 1.6-.59.145-.086.382-.023.576-.03.696-.032 1.14.674 1.903.57.551-.077 1.193-.215 1.688.186.52.413 1.106.305 1.681.305 2.146-.011 4.298-.07 6.443-.07.74-.001 1.235-.12 1.553-.918.165-.42 3.113-1.41 3.646-1.414.382-.01.812-.04 1.135.113.438.21.84.398 1.356.41.764.016 1.525-.16 2.299.149 1.93.774 3.983 1.219 5.825 2.22.741 1.338 2.352.628 3.354 1.37.073.053.321-.093.471-.18.554-.315 1.112-.345 1.631.026.47.342.838.08 1.309-.008 2.02-.38 3.831-1.117 5.361-2.478.969-.046 1.744-.748 2.731-.753 1.952-.002 3.903-.06 5.86-.08.285-.003.685-.043.839.116.828.87 2.133.03 2.991.9.362.368 1.025.63 1.547.624.818-.01 1.182.585 1.755.896.482.264 1.112.263 1.606.515 1.694.855 3.205 2.046 5.03 2.666.261.087.47.342.678.543 2.157 2.07 4.713 3.578 7.423 4.775 1.755.776 3.17 2.112 5.007 2.72.717.238 1.367.9 2.058.905.648.005 1.131.854 1.846.26.282-.235.486.14.676.305a5.017 5.017 0 0 0 2.559 1.198c.266.045.535.185.773.332.86.51.52 1.567 1.037 2.29.271.38.116 1.105.037 1.662-.034.24-.309.577-.538.646-.997.29-1.589 1.063-2.248 1.75-1.6 1.674-3.656 2.7-5.581 3.922a2.917 2.917 0 0 1-1.626.484c-.666.013-1.445-.241-1.973.23-.517.466-1.066-.454-1.495.178-.084.12-.344.159-.526.173-.484.029-.976-.014-1.46.027-.606.049-1.164-.03-1.629-.454-.41.249-.802.45-1.316.492-.539.04-.894-.845-1.542-.175-.431.44-.868-.08-1.276-.285-.999 1.128-1.913-.315-2.947-.094-1.027.22-2.138.07-3.211.082-1.952.02-3.909.042-5.861.044-.569 0-1.198.169-1.687-.238-.472-.396-.966.398-1.499-.146-.319-.325-.83-.01-.856.35-.017.19-.015.383-.037.574-.121 1.113.163 2.216-.448 3.353-.457.847.096 2.067-.579 3.013-.089.126.139.53.293.75.161.225.174.393-.11.408-.764.038-1.659.262-2.274-.036-.762-.374-1.465-.39-2.235-.395-.672-.004-1.362.14-2.008-.17-1.102-.526-2.455-.553-3.35-1.482-.619-.64-1.583-.66-2.161-1.388-.325-.41-.954-.737-1.482-.797-1.39-.152-2.5-.924-3.677-1.503-.554-.27-1.165-.13-1.636-.473-.47-.341-.94-.707-1.315-1.14-.571-.657-1.56-.174-2.1-.832-.277.236-.753.45-.786.714-.112.97-.587 1.782-.99 2.629-.444.93-.603 1.967-1.102 2.88-.54.987-.734 2.107-1.256 3.129-.457.896-.433 2.03-.883 2.933-.468.943-.628 1.955-1.029 2.904-.36.853-.586 1.764-.855 2.657-.38 1.254-1.028 2.45-.862 3.824.087.716-.812 1.108-.591 1.86.208.726-.223 1.317-.562 1.858-.666 1.066-.515 2.212-.508 3.342.002.729-.198 1.299-.733 1.789-.192.175-.402.369-.137.7.485.61.401 1.246-.053 1.842-.328.428-.196.923-.209 1.39-.021.753.12 1.499-.37 2.22-.233.345-.146.923-.147 1.396-.001 2.122.034 4.238.033 6.36.002.753.169 1.535-.448 2.199-.15.163-.163.623-.04.825.987 1.61.407 3.373.577 5.057.008.096.033.22-.015.28-.113.14-.257.345-.408.358-.581.06-1.176.019-1.75.09-.655.08-1.103-1.004-1.834-.308-.493.465-1.107.269-1.67.322-.455.04-.56.34-.781.678-.703 1.066-.488 2.367-1.046 3.485-.356.715.127 1.66-.44 2.48-.471.686.165 1.755-.646 2.415-.121 1.048-.153 2.022.482 3.02.556.873 1.563 1.04 2.177 1.752.073.083.437.06.538-.041 1.002-.974 2.527-.063 3.53-.983.397.295.817.47 1.345.446.605-.03.943-.745 1.6-.555.54.156 1.065.407 1.617.497.57.09 1.17.017 1.753.047 1.036.06 2.147-.388 3.095.42.104.09.432.068.54-.035.654-.598 1.46-.434 2.219-.466.974-.04 1.958.033 2.927-.043 1.035-.077 2.11.193 3.103-.505.403-.28 1.145-.042 1.708-.15.895-.17 1.778.8 2.661.013.878-.015 1.757-.018 2.636-.058.763-.038 1.503.008 2.256-.394.543-.293 1.326-.236 1.992-.195 2.087.14 3.971-.497 5.761-1.436.439-.232.849-.464 1.353-.397.176.022.335.15.5.233-.048.085-.089.175-.143.253-.931 1.337-2.497 1.718-3.854 2.367-.482.232-1.049.43-1.587.602-.622.192-1.346-.081-1.953.38-.415.315-.93-.265-1.489.165-.373.29-1.121.12-1.708.126-2.146.04-4.296.064-6.442.105-.763.014-1.534-.121-2.233.424-.257.2-.73.157-1.112.167-1.267.032-2.55.147-3.8.01-.759-.08-1.344.829-2.119.25-.036-.023-.344.172-.35.268-.006 1.542.017 3.084.033 4.62.009.676.728 1.092.61 1.859-.097.641-.125 1.34.402 1.909.319.349.08.686-.11 1.035-.124.228-.265.66-.155.767.638.645.458 1.43.49 2.182.025.58.19 1.2.031 1.722-.203.678.74 1.08.233 1.833-.28.421-.193 1.102-.213 1.67-.017.574.026 1.153.056 1.733.061 1.045.582 1.56 1.612 1.573.879.014 1.758.005 2.637.013.86.009 1.767-.24 2.507.434.72-.707 1.632-.478 2.493-.493 4.2-.063 8.393-.12 12.593-.188.854-.016 1.76.214 2.51-.458.114-.103.369-.081.557-.083 2.539-.045 5.083-.168 7.611-.07.801.034 1.554.157 2.376-.013.624-.132 1.392-.284 1.972.188.612.496 1.101-.155 1.533-.094.54.078.993.539 1.564.031.132-.115.355-.207.525-.191 1.614.174 3.298-.549 4.865.331.708-.63 1.372-.314 2.061.061.116.065.394-.04.52-.143.403-.333.906-.272 1.354-.409.863-.266 1.588.635 2.419.184.736-.403 1.526-.184 2.289-.228.673-.037 1.278-.175 1.935-.391 1.166-.389 2.499-.439 3.686.014.572.215 1.105.269 1.677.335 1.711.197 3.485-.492 5.168.339.097.047.326-.117.47-.214.535-.352 1.172-.317 1.695-.168 1.088.306 2.136.761 3.183 1.192.122.052.209.297.23.464.045.358-.207.522-.516.525-2.048.046-4.107.194-6.145.06-.813-.051-1.542-.121-2.358.055-.719.151-1.561.268-2.221-.341a33.68 33.68 0 0 0-7.238.036c-.629.64-1.461.452-2.213.46-6.248.078-12.497.121-18.739.17-.576.006-1.156.108-1.682-.305-.098-.082-.459.208-.706.247-.376.052-.776.116-1.134.03-1.969-.481-1.963-.481-4.14.008-.464.107-.956.112-1.441.117-2.048.04-4.103.044-6.151.096-.757.02-1.529-.109-2.262.365-.253.164-.981-.384-1.239-.22-.662.419-1.152.484-1.824.025-.386-.265-.936-.193-1.357.134-.69.534-1.557.555-2.186.185-.848-.505-1.694-.263-2.537-.385-.62-.089-1.099.43-1.59.411-.406-.013-.841-.373-1.35-.362-.49.011-.933.064-1.372.35-.294.188-.802.337-1.083.214-.718-.321-1.366-.816-2.06-.002-.679.026-1.376-.015-2.036.106-.333.063-.802.379-.87.667-.234.917-.937 1.433-1.512 2.066-.132.145-.354.321-.335.458.133 1.015-.73 1.389-1.238 1.998-.24.29-.477.639-.547.992-.15.737-.73 1.288-.697 2.148.024.598-.936.907-1.11 1.62-.087.359-.496.681-.487 1.009.045 1.213-.52 2.182-1.055 3.192-.487.92-.883 1.863-1.521 2.712-.621.82-1.199 1.783-1.412 2.759-.514 2.379-2.002 4.248-3.076 6.328-1.133.676-.839 2.083-1.562 2.97-.17 1.556-1.049 2.791-1.865 4.067-.607.951-1.05 1.996-1.59 2.988-.673 1.244-1.228 2.53-2.051 3.716-.621.897-1.283 1.909-1.39 3.058-.071.784-.777 1.078-1.038 1.679-.253.594-.088 1.316-.695 1.818-.913.745-.52 2.26-1.682 2.882-.238 1.054-1.244 1.663-1.584 2.677a3.072 3.072 0 0 0-.182 1.108c-.376.004-.97-.097-1.008.298-.099 1.017-.69 1.717-1.27 2.446.265 1.049-.584 1.519-1.128 2.158-.24.284-.545.604-.584.933-.155 1.359-1.03 2.384-1.585 3.544-.184.379-.163.719-.165 1.09-.826.331-1.401.929-1.738 1.728-.443 1.051-.985 2.019-1.867 2.782-.678.587-.5 1.374-.376 2.114.045.269.215.303.389.133.6-.586 1.413-1.043 1.299-2.064.648-1.125.924-2.449 1.871-3.403.378-.381.452-.812.398-1.302.17-.062.411-.076.501-.197.61-.825 1.188-1.668 1.778-2.505.016-1.411.932-2.372 1.654-3.467.757-1.15 1.233-2.482 1.813-3.738.09-.168.02-.383.019-.574zm89.335 64.409c.721.034 1.095-.179 1.255-.522.45-.973 1.12-1.769 1.876-2.513a.79.79 0 0 0 .206-.51c-.007-.646.157-1.132.908-1.217.531-1.273 1.882-1.975 2.456-3.141.635-1.286 1.637-2.176 2.684-2.964.792-.6 1.583-.961 1.594-2.127.003-.335.599-.688.965-.991.288-.236.832-.35.915-.619.415-1.386 2.202-1.973 2.112-3.622.36-.285.72-.563 1.082-.848-.276-1.241 1.065-1.745 1.302-2.776.098-.437.863-.278 1.045-.866.439-1.409 1.434-2.454 2.496-3.446.492-.454.887-.942 1.145-1.608a3.313 3.313 0 0 1 1.395-1.665c1.047-.657 1.953-1.599 2.32-2.865.169-.581.547-.98.917-1.426.671-.802 1.206-1.729 1.932-2.472.743-.767 1.315-1.622 1.875-2.507.715-1.125 1.473-2.227 2.481-3.147.636-.58.539-1.189-.231-1.611-.663-.364-1.382-.631-2.053-.989-.762-.404-1.126-1.584-2.053-1.478-1.113.125-1.022-.964-1.716-1.243-1.839-.746-3.017-2.604-5.083-3.001-.217-.541-.543-.896-1.152-1.123-.608-.227-1.027-.796-1.672-1.088-.658-.304-1.312-.847-1.54-1.651-.087-.298-.29-.523-.617-.484-.793.086-1.338-.344-1.713-.902-.45-.677-1.414-.655-1.761-1.363-.316-.648-.852-.929-1.444-1.287-.592-.365-1.605-.348-1.694-1.351-1.309-.524-2.158-1.609-3.101-2.549-.963-.959-2.223-1.543-3.143-2.484-1.165-1.183-2.508-2.107-3.869-2.989-.648-.418-1.265-.847-1.833-1.355-.943-.845-.949-.839-1.516.614-.064.168-.17.438-.286.457-.792.116-.847.643-.834 1.264.01.371.1.86-.297 1.038-.465.208-.954.368-.851.959.169.997-.34 1.63-1.012 2.241-.276.254-.684.629-.65.897.146 1.194-.783 2.155-.637 3.331.12.973.106 1.912-.814 2.603-.185.14-.279.511-.269.768.019.699-.338 1.271-.507 1.895-.308 1.157-.507 2.39-.883 3.506-.452 1.356-.25 2.639-.272 3.96-.01.676.186 1.451-.086 2.004-.451.913-.314 1.868-.54 2.768-.232.917-.581 1.787-.502 2.761.02.257-.165.528-.252.798-.428 1.313-.458 1.977-.275 3.649.06.561.108 1.129-.304 1.647-.388.489-.399 1.087-.025 1.591.314.421.386.856.391 1.347.014 1.255.033 2.504.066 3.759.018.592-.031 1.13-.45 1.613-.185.211-.139.509.046.788.265.392.379.923.716 1.218.728.638.998 1.4.892 2.31-.121 1.042.178 1.851 1.052 2.488.378.271.752.619.735 1.176-.032 1.064-.056 2.11.982 2.835.178.123.206.511.232.786.041.382-.003.771.02 1.154.022.394.129.692.615.824.845.236 1.275.823 1.182 1.727-.049.497.047.932.446 1.304.275.261.509.575.718.889.413.624 1.087 1.25 1.137 1.913.077 1.022 1.003 1.376 1.279 2.192.432 1.287 1.723 1.333 2.467 1.726zm84.664-24.087c.09-.019.242-.015.259-.063.271-.69.884-1.229.851-2.054-.034-.866-.001-1.727.008-2.594.85-1.007.455-2.193.496-3.317.02-.479-.145-1.122.107-1.4.843-.948.089-2.327 1.001-3.203-.015-1.249-.034-2.504-.03-3.754 0-.568-.042-1.141.365-1.648.322-.404.358-.972.082-1.346-.444-.599-.457-1.238-.464-1.908-.014-.771-.126-1.547-.032-2.307.122-1.017-.245-1.916-.72-2.694-.673-1.105-.733-2.138-.187-3.238.19-.379.228-.666.006-1.046-.184-.315-.359-.708-.339-1.055.081-1.406-.047-2.69-1.39-3.536-.159-.1-.319-.278-.356-.445-.128-.548-.049-1.141-.57-1.566-.372-.301-.523-.825-.8-1.133-.485-.539.037-1.029-.173-1.463a226.613 226.613 0 0 0-2.175-4.287c-.217-.416-.651-.746-.542-1.279.207-1.018-.454-1.591-1.091-2.2-.63-.597-1.225-1.237-1.832-1.852.039-1.465-1.199-2.103-2.027-2.979-.533-.562-1.061-1.107-1.306-1.851-.144-.447-.126-1.003-.396-1.335-.344-.415-.953-.612-1.375-.978-.654-.573-1.448-1.108-1.826-1.845-.39-.767-1.077-.999-1.635-1.465-.947-.797-2.147-1.269-2.987-2.222-.197-.225-.536-.192-.783.008-.3.249-.667.474-.833.798-.807 1.569-2.141 2.689-3.321 3.939-.259.277-.476.59-.644.928-.463.937-.956 1.827-1.705 2.606-.785.816-1.288 1.915-2.123 2.665-2.448 2.209-4.09 5.036-6.19 7.509-.604.712-1.262 1.52-1.465 2.389-.197.821-.603 1.363-1.124 1.925a32.027 32.027 0 0 0-2.363 2.865c-.776 1.06-1.736 2.015-2.395 3.164-.578 1.004-1.514 1.756-2.043 2.718a30.95 30.95 0 0 1-2.487 3.78c-.466.615-1.008 1.458-.095 2.303.202.189.063.741.079 1.123.022.436.226.781.692.71.762-.116 1.23.489 1.881.661.717.19 1.331.919 2.035.983 1.214.112 2.071.988 3.188 1.173 1.27.214 2.255.993 3.398 1.447.615.244 1.184.686 1.816.787.619.101 1.082.317 1.522.719 1.274 1.158 2.822 1.913 4.311 2.758 1.329.757 2.979.877 4.165 1.749 1.246.913 2.86 1.039 3.975 2.145.313.308.836.535 1.285.566a4.086 4.086 0 0 1 2.559 1.145c.827.786 2.029.522 2.855 1.201.141.118.384.211.417.348.242 1.127 1.302 1.002 2.05 1.257.492.162.899.23 1.033.796.031.143.283.362.404.343.913-.124 1.453.427 1.975 1.013.932 1.048 2.282 1.446 3.51 1.815 1.15.341 2.131.779 3.005 1.547.105.112.317.128.494.18zm-30.912 35.253c.657.172.669.19.92-.028.883-.768 1.816-1.382 3.071-1.342 1.049.031 1.494-.847 1.965-1.515.299-.428-.323-.822-.522-1.238-.614-1.273-1.126-2.606-1.885-3.794-.505-.795-1.101-1.554-1.583-2.368-.482-.808-1.11-1.644-1.228-2.522-.126-.967-.68-1.732-.866-2.669-.174-.858-.782-1.671-1.126-2.558-.367-.947-.506-1.985-1.079-2.888-.549-.855-.743-1.923-1.25-2.814-.884-1.563-1.237-3.346-2.193-4.879a1.45 1.45 0 0 1-.203-.804c.061-1.089-.567-1.973-.887-2.938-.351-1.06-1.295-1.989-1.44-3.045-.164-1.212-1.691-1.716-1.342-3.047-1.289-.907-1.15-2.552-1.963-3.703-.227-.326-.4-.641-.369-1.054.047-.712-.244-1.259-.729-1.798-.435-.485-.885-1.09-1-1.699-.135-.686-.438-1.185-.783-1.767-1.007-1.681-2.327-3.257-2.356-5.373-.002-.155-.193-.452-.279-.445-.259.021-.707.115-.736.253-.236 1.126-1.358 1.592-1.85 2.536-1.408 2.693-2.973 5.299-5.248 7.397-.144.133-.348.267-.376.429-.224 1.126-1.401 1.605-1.79 2.548-.39.954-1.428 1.39-1.722 2.266-.375 1.104-1.364 1.598-1.985 2.436-.167.223-.419.495-.398.728.083.907-.549 1.386-1.075 1.936-.941.978-2.011 1.863-2.798 2.947-1.279 1.747-2.013 3.853-3.602 5.419-.054.054-.023.191-.058.281-.436 1.195-1.286 2.1-2.161 2.994-1.001 1.027-2.221 1.877-2.783 3.264-.951-.014-.789.971-1.269 1.401-.559.496-1.275.94-1.338 1.813a16.04 16.04 0 0 0-3.325 4.615.997.997 0 0 1-.402.417c-.765.408-.852 1.24-1.234 1.884-.309.523-.173.719.467 1.035.609.299 1.229.471 1.892.62.631.142 1.009.808 1.654 1.106.761.35 1.269 1.248 2.036 1.574 2.076.893 4.024 2.193 6.396 2.305.412.02.782.117 1.029.438.547.705 1.292.703 2.099.718.94.02 1.947-.313 2.799.449.165.153.552.077.837.086.388.014.782.004 1.17.012.673.005.475.796.889.983.775.35 1.59.598 2.393.865.778.26 1.35.541 2.134.067.68-.42 1.456-.345 2.205-.036.347.146.744.363 1.077.311 1.476-.231 2.755.898 4.236.541.145-.037.341.14.518.198 1.362.44 3.496.518 4.776.003.959-.387 1.862-.385 2.799-.066.25.087.403.253.741.076.494-.263 1.124-.281 1.593-.567.922-.572 2.139-.113 2.991-.905.162-.151.575-.09.86-.051.85.116 1.508-.148 2.064-.787.431-.513 1.019-.472 1.622-.251zM56.214 195.93c-.152.002-.291-.039-.339.01-.888.864-2.026.452-3.055.582-.399.052-.774.08-.83.577-.044.383-.058.772.249 1.079.41.414.827.816 1.243 1.224.552.545 1.267 1.003 1.619 1.651.44.796 1.194 1.141 1.788 1.709.399.384.593.974.98 1.376.312.325 1.047.455 1.123.777.172.763.869.69 1.26 1.057.208.201.582.478.54.639-.284 1.145.882 1.312 1.314 1.953.8 1.175 1.667 2.314 2.535 3.446.7.913 1.443 1.766 2.229 2.607.195.207.484.449.498.688.081 1.344.86 2.107 1.905 2.897.788.595 1.158 1.715 1.996 2.394.14.112.215.308.302.475.749 1.408 2.118 2.422 2.626 3.995.081.244.399.414.589.633 1.062 1.226 2.293 2.355 3.126 3.715.562.926 1.483 1.538 1.924 2.46.454.946 1.152 1.62 1.766 2.408.72.925 1.576 1.681 2.362 2.51 1.048 1.112 2.265 2.08 2.99 3.471.043.077.152.118.22.183.183.177.408.139.405-.124-.016-.801.943-.668 1.114-1.142.212-.576.571-.992.96-1.415.396-.428.828-.816 1.223-1.244.462-.489 1.02-.938 1.33-1.515a16.75 16.75 0 0 1 3.267-4.273c.336-.321.743-.755.77-1.162.04-.76.472-1.201.878-1.743.387-.518.847-1.169.841-1.755-.018-1.07.46-1.768 1.08-2.534.397-.482.035-1.333.697-1.795.529-.37.637-.933.595-1.537-.092-1.206.266-2.244 1.142-3.108.791-.78 1.065-1.745 1.132-2.834.037-.538.419-1.045.51-1.59.097-.563-.19-1.301.09-1.698.686-.988.469-2.02.446-3.048-.016-.819.116-1.514.795-2.047.319-.248.527-.657.244-1.001-.399-.492-.339-1.066-.49-1.597-.189-.655.891-1.073.155-1.819-.515-.52.212-1.108.463-1.511.571-.897.564-1.542-.286-2.191-.335-.253-.388-.635-.38-1.036.007-.478.001-.963-.053-1.44-.013-.108-.324-.29-.33-.278-.606.629-1.204.181-1.8.002-.751.641-1.663.412-2.517.433-2.242.048-4.485.048-6.727.084-.581.006-1.261-.112-1.72.138-1.23.671-2.356.659-3.576.032-.298-.152-.764-.099-1.121-.006-2.29.587-2.29.604-4.12.044-.482-.144-.936-.163-1.38.122-.236.152-.513.323-.773.332-2.34.054-4.685.073-7.024.098-.37.004-.52-.436-.998-.342-2.438.463-2.444.433-4.455-.036a3.743 3.743 0 0 0-.85-.11c-1.266.007-2.539.033-3.806.07-1.34.039-2.668-.061-3.97.527-.549.245-1.327.038-1.994-.038-.286-.063-.519-.306-.727-.429zm-46.193 20.819c-.01 1.811-.034 1.835.995 2.852.51.503.914.983.79 1.743-.08.515.142.92.522 1.274.355.331.571.699.692 1.206.249 1.056.57 1.148 1.272.435 1.21-1.238 2.894-1.926 3.933-3.354a.6.6 0 0 1 .229-.176c1.76-.76 2.78-2.349 4.04-3.641.508-.52.81-1.193 1.552-1.535.687-.325 1.121-1.005 1.772-1.454 1.486-1.032 3.087-1.976 4.21-3.429.574-.741.843-1.724 1.925-1.963.358-1.044 1.242-1.681 1.942-2.46.444-.489.899-.96 1.262-1.556.363-.595 1.209-.891 1.7-1.434.826-.918 1.928-1.587 2.4-2.842.188-.498.704-.976 1.192-1.238 2.018-1.098 3.266-2.874 4.555-4.664.668-.927.677-1.723.135-2.631-.29-.487-.497-.993-.883-1.45-.67-.782-1.31-1.636-1.707-2.57-.23-.535-.23-1.002-.934-1.215-.475-.145-1.937-2.389-2.077-2.955-.094-.37-.038-.783-.524-.903-1.259-.31-1.52-1.467-1.785-2.39-.359-1.246-.933-2.25-1.877-3.107-.274-.248-.599-.519-.567-.962.057-.778-.51-1.196-.965-1.693-.509-.563-1.289-.907-1.455-1.748-1.601-1.765-2.475-4.015-3.999-5.834-.55-1.638-1.898-2.819-2.557-4.396-.211-.506-.357-.505-.741-.1-.264.284-.582.532-.79.851a61.31 61.31 0 0 0-1.769 2.895c-.279.493-.486.997-.868 1.449-1.34 1.593-2.479 3.333-3.453 5.166-.492.932-.974 1.87-1.845 2.525-.77.582-1.1 1.327-.92 2.258.219 1.169-.24 2.017-1.122 2.773-.751.636-1.286 1.515-1.13 2.511.163 1.027-.653 1.789-.576 2.726.091 1.153-.633 1.938-1.054 2.881-.33.745-.91 1.48-.651 2.416.043.155-.02.431-.14.522-.805.642-.934 1.594-1.245 2.476a5.294 5.294 0 0 1-.66 1.256c-.382.56.476.766.324 1.252-.083.264 0 .622-.15.815-.4.506-.388 1.05-.375 1.63.024 1.153.03 2.313.02 3.467-.008.466-.027.921-.186 1.401-.58 1.787-.53 1.936.234 3.476.123.256.217.53.384.755.282.38.152.692-.044 1.047-.131.235-.326.649-.227.768.688.841.426 1.83.538 2.756.047.364.13.74.273 1.073.186.434.463.826.668 1.248.28.577-.54.956-.298 1.552.069.178.017.394.015.245zm52.138 37.492c.29-.021.88.104 1.236-.126.619-.396 1.238-.474 1.922-.493.66-.025 1.36.188 1.967-.29.606-.479 1.568-.149 2.08-.865.66-.031.989-.573 1.415-.936.54-.46 1.413.015 1.847-.677 1.053-.071 1.46-1.146 2.42-1.467 1.07-.358 2-1.109 3.032-1.599.947-.446 1.708-1.13 2.544-1.719.165-1.041 1.109-1.231 1.843-1.627.923-.494 1.875-.935 2.798-1.423.33-.177.619-.431.926-.644.228-.157.234-.307.018-.46-.769-.56-1.587-1.065-2.296-1.685-1.09-.963-2.108-2.004-3.143-3.021-.277-.272-.559-.55-.762-.865-.443-.677-.464-1.531-1.374-2.03-.683-.375-1.159-1.237-1.549-1.968-.247-.464-.445-.796-.985-.88-.122-.023-2.035-2.591-2.109-2.728-.13-.243-.236-.517-.408-.725-.787-.924-2.06-1.52-2.027-2.997.004-.101-.282-.224-.44-.318-.244-.147-.59-.215-.732-.422-.586-.867-1.099-1.782-1.96-2.43a.717.717 0 0 1-.184-.22c-.236-.41-.524-.801-.675-1.242-.376-1.108-1.42-1.772-1.85-2.838-1.125-.364-1.402-1.371-1.891-2.275-.496-.903-1.189-1.715-1.852-2.515-1.579-1.89-2.839-4.023-4.598-5.767-.032-.795-.89-.594-1.247-1.009-.375-.439-.809-.834-1.232-1.236-.753-.734-1.43-1.498-2.02-2.388-.722-1.086-1.336-2.335-2.502-3.106a1.122 1.122 0 0 1-.214-.195c-.233-.266-.542-.209-.788-.099-.133.061-.252.302-.262.469-.03.67-.022 1.346-.014 2.021 0 .675.02 1.345.016 2.02-.005.67-.028 1.34-.039 2.009-.793.619.19 1.158.087 1.757-.12.737.21 1.51-.334 2.221-.222.284.444.701.008 1.208-.258.296-.21.917-.162 1.371.041.352.5.741.417.993-.146.438-.427.806-.416 1.326.052 1.924.055 3.849.064 5.774.004.867.147 1.774-.068 2.583-.14.516-.354.943-.1 1.46-.473.471-.345 1.062-.344 1.63 0 .573-.055 1.16.41 1.621.037.036.003.174-.04.234-.686.964-.315 2.054-.329 3.082-.04 2.404.023 4.812.03 7.215.006.956.235 2.012-.1 2.841-.356.864.734 1.839-.343 2.52-.042.03-.01.185-.01.281.002.676-.02 1.351.024 2.02.03.562-.242 1.234.2 1.666.673.65-.192 1.299.043 1.751.589 1.124.249 2.239.267 3.357-.787.696.23 1.145.268 1.743.021.298.494.269.747.171.32-.129.505-.394.98-.166 1.005.48 2.053.433 3.029-.206.259-.17.514-.095.806-.008 1.94.571 1.951.577 3.854-.029.677-.217 1.384-.326 1.952.015.646.375 1.295.297 2.15.335zM47.38 205.93h.03c-.018-1.638-.043-3.276-.055-4.914-.005-.526-.208-.781-.733-1.038-.67-.328-1.197-.956-1.773-1.464-.258-.23-.62-.256-.79-.075-.436.483-1.329.361-1.495 1.218-.109.557-.978.423-1.157 1.136-.158.599-.758 1.078-1.08 1.655-.29.523-.638.904-1.205 1.161-1.055.477-1.587 1.679-2.753 2.026-.15 1.251-1.698 1.578-1.89 2.794-1.465 1.809-3.163 3.399-4.867 4.978-1.203.347-1.692 1.608-2.687 2.121-1.163.604-1.946 1.545-2.847 2.392-1.319 1.251-2.46 2.656-4.094 3.618-1.3.767-2.39 1.903-3.525 2.925-.402.363-.627.915-.998 1.32-.946 1.002-.905 1.379.069 2.402.54.568 1.226 1.201.539 2.135-.071.096.022.394.133.512.264.273.546.604.88.708.858.26 1.336.745 1.304 1.648-.013.449.292.691.562.963.533.544 1.06 1.052 1.4 1.79.356.755 1.214 1.183 1.648 1.973.37.684.487 1.412.768 2.09.348.845 1.464.839 2.047 1.509a19.08 19.08 0 0 0 2.083 2.028c.526.443.129 1.212.574 1.536.422.312 1.041.378 1.57.563.085.029.13.142.21.195.579.383.205 1.116.561 1.554.45.546 1.377.022 1.802.711.296.481.593.962.925 1.412.246.333.619.52 1.01.271.336-.207.577-.407.986-.089.367.283.878.397 1.232.687.998.82 2.07 1.364 3.414 1.224.388-.04.775.004 1.088.294.832.768 1.641 1.548 2.937.895.151-.073.512.186.738.339.323.212.589.603.922.665.546.108 1.361.345 1.634-.161.352-.649 1.265-1.298.448-2.288-.258-.314-.252-.912-.215-1.373.162-1.884-.508-3.826.375-5.659-1.035-.981-.052-1.918.047-2.882.061-.556.102-1.154-.37-1.628-.233-.23-.254-.601-.051-.776.504-.442-.137-.913.041-1.196.37-.584.401-1.033-.047-1.548-.055-.065.069-.336.171-.468.502-.645-.248-1.026-.302-1.539-.074-.663.702-1.161.446-1.888a2.175 2.175 0 0 0-.248-.506c-.228-.332-.426-.682-.115-1.032.438-.495.352-1.074.352-1.642-.008-2.409-.023-4.818-.03-7.221-.002-.664-.045-1.291.348-1.935.339-.553.21-1.257-.015-1.925-.57-1.697-.531-1.901-.037-3.831.117-.456.166-.946.118-1.406-.04-.346-.481-.742-.399-1 .147-.444.421-.824.41-1.338-.03-1.542-.028-3.084-.045-4.626zm162.319 42.042c.09-.024.229-.02.254-.074.598-1.262 1.418-2.167 2.943-2.399.611-.09.997-.817 1.636-1.129.519-.251.813-1.007 1.141-1.573.522-.908.881-1.97 2.264-1.829.073.005.157-.103.242-.152 1.209-.772 1.641-2.307 2.967-2.979.241-.122.517-.388.575-.634.237-1.019 1.244-1.454 1.702-2.284.457-.824.903-1.665 1.233-2.541.182-.487.5-.807.83-1.151.599-.628 1.191-1.274 1.84-1.855.516-.466.832-.924.448-1.607.449-.603.463-1.541 1.296-1.831 1.092-.388 1.464-1.331 1.37-2.215-.162-1.498.442-2.772.821-4.115.122-.438.254-.613-.317-.756a5.114 5.114 0 0 1-1.548-.707c-.476-.324-.887-.75-1.28-1.176-.435-.479-.893.303-1.468-.181-.985-.821-1.948-1.839-3.409-1.895-.145-.004-.408-.211-.41-.33-.027-.807-.844-.679-1.224-1.051-.484-.473-.949-.923-1.743-.896-.315.009-.677-.322-.958-.558-.587-.49-1.108-1.028-1.869-1.313-.602-.221-.902-1.031-1.713-.956-.903.075-1.21-.866-1.953-1.127-.608-.215-1.083-.981-1.659-1.04-.862-.087-1.43-.451-2.047-.941-.263-.206-.718-.231-1.088-.245-.504-.019-.971-.068-1.303-.489-.375-.486-.97-.587-1.47-.857-.915-.498-1.938-.9-2.684-1.585-.827-.756-1.925-.834-2.755-1.399-1.807-1.231-3.675-2.317-5.678-3.192a44.048 44.048 0 0 1-3.827-1.914c-1.648-.927-3.608-1.199-5.106-2.432-.117-.094-.377-.014-.577-.018-.418-.013-.808.403-.659.719.373.761.697 1.552 1.158 2.259.684 1.039.88 2.292 1.51 3.308 1.932 3.129 1.98 3.099 3.296 7.09 1.112 1.303.982 3.295 2.522 4.373.201.141.399.492.378.725-.092 1.065.558 1.74 1.1 2.541.395.582.699 1.278.823 2.078.176 1.169.384 2.417 1.346 3.333.189.183.29.475.378.737.439 1.328.781 2.7 1.521 3.905.217.351.317.69.286 1.079-.043.611.235 1.074.544 1.585.63 1.045 1.158 2.157 1.69 3.258.286.588.723 1.205.712 1.809-.015.837.591 1.417.66 2.133.088.908.731 1.523 1 2.315.395 1.156 1.363 2.066 1.456 3.35.014.167.125.435.247.47 1.053.317 1.647.945 1.575 2.081 1.177 1.165 1.679 2.726 2.476 4.11.074.101.335.11.505.168zm-162.75-57.831c.252-.272.722-.552.719-.821-.019-1.106.702-1.729 1.38-2.412.269-.278.514-.585.815-.834a3.957 3.957 0 0 0 1.31-2.16c.207-.964.647-1.758 1.062-2.606.456-.931.791-1.903 1.51-2.712.616-.694.641-1.686 1.251-2.488 1.255-1.645 2.216-3.509 3.446-5.19.382-.524.714-1.167.792-1.79.118-.898.705-1.544 1.005-2.33.46-1.206 1.656-2.128 1.41-3.602.339-.571.58-1.237 1.035-1.685.918-.9 1.342-2.052 1.955-3.123.832-1.462.975-3.298 2.454-4.414.174-.133.115-.539.227-.792.402-.948.73-1.956 1.279-2.823.554-.879.328-2.12 1.364-2.758a.2.2 0 0 0-.014-.354.206.206 0 0 0-.142-.015c-1.119.185-2.07-.373-3.055-.661-.932-.271-1.808-.609-2.795-.508-.993.106-1.95.116-2.608-.833-.247-.356-.474-.001-.716.085-.802.272-1.606.567-2.428.755-.386.088-.781.104-1.025.442-.513.717-1.22.903-2.052.805-1.026-.127-1.897.098-2.614.918-.203.23-.713.283-1.076.269-.65-.023-1.125.215-1.532.674-.341.386-.77.516-1.298.51-.57-.006-1.172-.125-1.7.233-.867.589-1.968.769-2.748 1.524-.264.254-.642.581-.958.566-1.248-.04-2.217.556-3.199 1.17-1.327-.045-2.232 1.005-3.446 1.287-1.313.306-2.197 1.446-3.49 1.878-.694.235-1.018 1.129-1.957 1.115-1.146-.018-1.09 1.189-1.66 1.769-.198.2-.437.411-.697.486-.605.174-.95.65-1.37 1.043-.073.066-.114.162-.186.223-.204.169-.185.307.036.472 1.124.849 1.165 2.384 2.176 3.318.704.65.933 1.646 1.728 2.265.696.543.816 1.486 1.29 2.174.542.784 1.32 1.415 1.975 2.125.123.131.264.332.254.494-.08 1.035.792 1.468 1.333 2.114.363.438.961.868 1.01 1.34.08.884.584 1.375 1.129 1.919.27.266.654.561.695.877.145 1.081.68 1.924 1.31 2.778.614.83 1.055 1.782 1.623 2.649.616.944 1.16 1.978 1.957 2.753.815.798 1.443 1.64 1.914 2.657.193.411.662.693 1.012 1.03.09.052.176.099.311.194zm126.882-35.52c-.422.226-.261.499.07.824.27.26.697.609.677.89-.113 1.37 1.008 2.488.714 3.872-.179.845.181 1.474.835 2.011.189.16.296.487.323.75.048.478.017.962.016 1.441-.006.586.067 1.123.581 1.554.275.23.473.592.599.938.437 1.227.935 2.453 1.192 3.723.121.591.634.938.648 1.548.024 1.123-.164 2.303.629 3.293-.136 1.394.289 2.603 1.108 3.736.191.267.093.734.145 1.105.06.435.951 2.679 1.301 3.046.356.385.445.809.506 1.298.026.257.229.506.389.731.406.57 1.037.587 1.444.069.538-.676.783-1.491 1.181-2.237.849-1.587 1.967-3.01 3.104-4.415 1.099-.34 1.322-1.544 2.134-2.139.745-.552.832-1.491 1.461-2.072.715-.659 1.435-1.295 1.356-2.406-.008-.143.19-.336.334-.457 1.142-.915 1.995-2.108 2.619-3.364.403-.811 1.292-1.03 1.609-1.829.373-.924 1.264-1.436 1.892-2.16.444-.513 1.166-.915 1.342-1.491.298-.954 1.153-1.471 1.507-2.389.288-.751 1.07-1.369 1.748-1.896.8-.624.977-1.63 1.666-2.301.552-.538 1.316-1.049 1.527-1.714.287-.912 1.252-.827 1.632-1.5.19-.343.257-.912-.071-.98-1.13-.245-1.952-1.151-3.166-1.275-.825-.087-1.618-.551-2.237-1.184-.276-.284-.612-.532-1.018-.438-.845.201-1.517-.222-2.176-.586-.701-.381-1.382-.577-2.194-.521-1.054.071-2.145.089-3.067-.559-.757-.53-1.587-.557-2.472-.571-1.329-.022-2.701.28-3.97-.472-.287-.17-.899-.199-1.127-.012-.92.74-1.744.198-2.631.011-.553-.114-1.104-.078-1.683-.305-.408-.163-1.027.256-1.559.321-.576.072-1.17.019-1.751.049-.588.03-.921.631-1.581.627-.534-.001-1.051.411-1.602.501-.568.096-1.163.03-1.751.042l-3.799.077c-.388.01-.812.547-.574.747.673.573.446 1.424.799 2.096.521.993.901 2.053 1.373 3.07.131.292.157.536-.032.903zm-91.707 35.772c0-.012 0-.024.008-.036 1.164.041 2.344-.037 3.474.172.492.09.79.117 1.254-.073.512-.209 1.083-.215 1.625-.496a2.078 2.078 0 0 1 2.195.132c.202.141.652.244.777.129.745-.671 1.637-.514 2.498-.529 1.267-.019 2.54.015 3.806-.011.86-.015 1.754.131 2.51-.517.126-.108.552.018.783.142.348.187.665.399 1.045.126.288-.206.354-.847.058-1.316-.5-.802-.91-1.67-1.692-2.289-.502-.395-.688-.878-.204-1.481.395-.494.363-1.08-.018-1.59-.4-.533-.474-1.256-1.085-1.662-.892-.594-1.198-1.446-1.07-2.481.033-.282 0-.58-.015-.867-.023-.406-.19-.632-.621-.824-1.127-.502-1.905-1.295-1.782-2.665.022-.252-.121-.573-.3-.768-.453-.503-.773-.996-.927-1.712-.153-.71-.682-1.332-.581-2.152.027-.239-.116-.596-.305-.744-.661-.525-1.043-1.118-.9-1.987.067-.407-.125-.74-.425-1.012-.568-.525-1.044-1.304-1.713-1.512-.84-.266-1.192.814-1.81 1.221-.314.207-.665.36-.995.549-1.741 1.011-3.433 2.081-4.804 3.578-.514.562-1.024 1.129-1.945 1.103-.304-.009-.657.372-.933.626a58.088 58.088 0 0 0-1.865 1.837c-1.864 1.927-3.623 3.972-6.132 5.159-.168.079-.3.242-.438.381-.887.87-1.94 1.563-2.865 2.362-1.038.902-2.312 1.37-3.322 2.2-.679.557-1.579.74-2.117 1.433-.61.79-1.502 1.242-2.346 1.615-.984.441-1.56 1.422-2.624 1.696-.157.038-.355.255-.383.417-.137.778-.845.947-1.375 1.306-.631.431-.962 1.223-1.772 1.447-.15.044-.27.2-.402.309.165.082.33.236.494.24 1.66-.006 3.32-.029 4.975-.059.382-.01.886.08 1.126-.12.787-.636 1.669-.406 2.522-.445.685-.031 1.37-.044 2.05-.034.569.012 1.114-.03 1.693.257.579.293 1.134-.514 1.845-.318.541.143 1.157-.108 1.677.322.183.148.65.233.771.118.666-.605 1.45-.446 2.219-.466.588-.013 1.192-.145 1.752-.037.613.119 1.022-.687 1.56-.304.659.477 1.042.007 1.561-.22.337-.147.762-.109 1.15-.12.776-.026 1.558-.022 2.34-.03h-.002zm81.937-39.003c-.443-.067-.781.014-1.15.209-1.253.665-2.494 1.324-3.896 1.722-1.353.385-1.73.849-3.047 2.334-.323.362-.671.7-1.019 1.039-.762.749-1.405 1.737-2.322 2.171-1.17.55-1.035 1.744-1.736 2.457-.462.472-.831 1.043-1.563 1.242-.459.125-.83.535-.946 1.021-.29 1.193-1.241 1.789-2.1 2.527-1.741 1.501-2.251 2.033.16 4.039.666.555 1.517.761 2.143 1.424.828.876 1.544 2.016 3.028 1.994.225-.002.458.33.678.519.661.555 1.24 1.338 2.001 1.611 1.01.36 1.05 1.316 1.662 1.877.208.189.477.306.715.465.953.623 1.977 1.168 2.833 1.906.875.75 1.792 1.416 2.72 2.093.997.725 1.802 1.703 2.965 2.246.511.24.964.6 1.446.906-.015.789.748.745 1.17 1.075.458.36.851.792 1.286 1.182.287.26.546.646.881.744 1.659.466 2.757 1.674 3.994 2.719.489.413 1.182.609 1.66 1.1.387.396.956.408 1.36.207.591-.294.162-.737.035-1.19-.321-1.175-.444-2.399-1.218-3.413-.517-.682-.212-1.492-.304-2.238-.1-.8-1.169-1.016-1.149-1.913.013-.46.001-1.022-.245-1.372-.487-.706-.243-1.683-1.074-2.284-.935-.672-.341-1.808-.593-2.708a.535.535 0 0 0-.16-.237c-.778-.685-1.151-1.524-1.017-2.56-.616-.968-.974-2.07-1.126-3.15-.157-1.122-1.023-2.082-.726-3.286-.813-.643-.261-1.695-.718-2.402-.876-1.365-1.021-3.038-1.981-4.349-.148-.201-.173-.285.006-.484.384-.416.397-.871-.056-1.243-.654-.537-.928-1.191-.852-2.029.032-.371.069-.862-.133-1.105-.578-.675-.194-1.594-.551-2.152-.469-.724-.477-1.423-.558-2.176a.541.541 0 0 0-.503-.538zM50.557 191.878c.091-.001.206.033.284-.009.724-.397 1.57-.603 1.88-1.557.136-.42.593-.759 1.15-.736.564.024.931-.195 1.004-.781 1.797-1.401 3.508-2.913 5.336-4.26 1.136-.837 2.389-1.55 3.512-2.429 1.152 0 1.802-1.011 2.76-1.338.678-.229.495-.92 1.08-1.231 1.162-.622 2.202-1.482 3.247-2.295 1.208-.939 2.304-2.027 3.575-2.865.578-.377 1.041-.693 1.403-1.307.846-1.414 2.07-2.497 3.56-3.254.747-.378 1.75-.563 2.143-1.26.512-.914 1.491-1.116 2.12-1.828 1.137-1.28 2.286-2.613 4.075-3.092.084-.025.162-.104.235-.17 1.336-1.33 1.664-1.345.225-2.681-.43-.396-.954-.767-1.184-1.261-.334-.725-.75-1.528-1.413-1.736-.992-.318-1.081-1.274-1.736-1.763-.213-.165-.511-.323-.766-.309-.8.033-1.301-.386-1.587-1.029-.46-1.035-1.105-1.781-2.317-1.852-.45-.025-.714-.309-.958-.588-.75-.852-1.93-1.336-2.23-2.582-.05-.203-.244-.177-.423.028-.192.217-.47.4-.569.652-.554 1.417-1.164 2.792-2.187 3.957-.113.127-.13.348-.152.533-.133 1.084-.767 1.892-1.413 2.735-.68.893-.977 2.008-1.731 2.918-1.262 1.526-2.328 3.199-3.298 4.937-1.283 2.31-2.385 4.737-4.198 6.729-.246.265-.32.679-.51 1.003-.768 1.3-1.536 2.587-2.518 3.764-1.273 1.532-1.796 3.522-3.022 5.107a2.819 2.819 0 0 0-.543 1.291c-.152 1.09-.737 1.915-1.419 2.741-1.393 1.677-2.695 3.419-3.595 5.425-.089.18-.076.294.18.393zm59.513-2.95v.012c.49-.005.982.026 1.46-.027.266-.033.543-.168.772-.319.325-.213.995-2.175.822-2.514-.515-.999-.51-2.23-1.386-3.064-.429-.408-.622-.89-.78-1.48-.31-1.168-1.151-2.152-1.335-3.387-1.294-1.433-1.944-3.225-2.811-4.902-.477-.921-.948-1.855-1.515-2.722-.364-.558-1.077-.933-1.314-1.516-.243-.595-.383-1.233-.723-1.822-.711-1.217-1.18-2.552-1.697-3.855-.169-.435-.181-.937-.385-1.347-.676-1.35-1.538-2.626-2.087-4.019-.549-1.405-1.91-2.383-2.05-3.971-.87-.912-1.463-1.916-1.702-3.216-.162-.883-.699-1.792-1.306-2.491-.774-.888-1.06-2.081-1.813-2.862-.871-.899-.848-2.089-1.519-3.009-.387-.528-.51-1.256-.933-1.735-.498-.563-.13-1.308-.652-1.858-1.06-1.119-1.712-2.469-2.098-3.959-.14-.537-.46-1.03-.702-1.535-.081-.167-.724-.243-.758-.088-.19.899-1.277 1.317-1.36 2.137-.086.88-.547 1.393-1.08 1.948-.33.345-.514.813-.782 1.157-.83 1.061-1.174 2.433-2.072 3.369-1.031 1.075-1.563 2.372-2.276 3.594-.31.529-.198.737.424 1.047 1.018.509 2.1.94 3.017 1.6 1.003.724 1.771 1.762 2.983 2.222 1.514 1.615 3.593 2.586 5.054 4.268.25.29.52.604.857.78.59.316 1.206.585 1.654 1.112.376.438.973.802 1.111 1.297.24.835 1.189.609 1.487 1.228.118.25.297.499.33.761.047.388.075.783.405 1.036.72.554.883 1.455 1.393 2.143.16.214.254.56.462.647 1.596.659 1.973 1.982 1.966 3.482-.005.634.193 1.098.665 1.511a5.088 5.088 0 0 1 1.717 2.881c.057.269.128.597.318.768.887.798 1.166 1.942 1.765 2.899.142.225.328.654.232.762-.521.598-.25.977.222 1.403.202.183.454.485.426.707-.166 1.454.888 2.471 1.314 3.704.15.429.577.753.523 1.291-.126 1.203.454 2.184.987 3.206.34.654.904 1.234.865 2.065-.026.467.268.673.722.674l1.183-.013zm57.31-47.742.048-.001c-.005-.478.055-.975-.028-1.44-.265-1.486-.789-2.885-1.628-4.149-.301-.452-.805-.506-1.302-.423-.525.083-1.192.676-1.163 1.124.087 1.303-.431 2.701.577 3.874-.025 1.148 1.01 2.081.665 3.299-.186.659.569.98.594 1.56.024.579.012 1.153.055 1.733.014.173.138.351.242.499.818 1.145 1.087 2.445.945 3.798-.16 1.448 1.262 2.336 1.205 3.717-.005.096.014.192.003.287-.059.694.292 1.247.548 1.866.566 1.374 1.387 2.711 1.259 4.278-.053.652.363 1.066.618 1.566.389.773.695 1.547.662 2.438-.014.359.034.872.266 1.055.893.696.958 1.616.914 2.585-.035.694.081 1.308.529 1.883.284.362.617.836.602 1.249-.025.993.686 1.726.734 2.736.041.956.796 1.863 1.109 2.834.459 1.418 1.256 2.736 1.284 4.278.002.174.09.4.218.506 1.034.844.934 2.256 1.654 3.222.542.73.448 1.622.948 2.364.325.486.244 1.3.172 1.952-.087.85.573 1.381.757 2.109.089.339.487.269.747.171.35-.129.657-.384 1.007-.495 1.003-.31.984-.286.721-1.179-.215-.715-.212-1.54-.576-2.158-.586-.992-.89-2.071-1.295-3.119-.543-1.387-.964-2.817-1.435-4.229.267-1.097-.301-2.059-.657-3-.362-.97-.331-2.077-.856-2.92-.457-.742-.042-1.584-.484-2.171-.536-.699-.182-1.576-.546-2.158-.5-.808-.569-1.608-.561-2.463.007-.55-.294-.893-.655-1.212-.386-.349-.584-.747-.559-1.262.024-.484-.168-.901-.324-1.353-.426-1.233-.514-2.571-1.362-3.662-.147-.196-.134-.561-.101-.836.112-.904-.308-1.653-.668-2.426-.199-.428-.574-.878-.53-1.285.1-.844-.513-1.436-.587-2.152-.081-.776-.199-1.499-.636-2.151.23-1.103-.513-1.986-.712-3-.212-1.08-.804-2.089-1.241-3.119-.329-.774-.768-1.516-.982-2.321-.191-.745-.138-1.535-.195-2.299zm-47.599 41.272c-.593.048-1.086-.054-1.338.14-.571.448-1.33.313-1.854.683-.349.243-.494.783-.719 1.191-.381.68.113 1.524-.444 2.193-.346.416.299.613.303.971.002.192.059.4.006.574-.112.348-.399.68-.395 1.015.003.34.431.7.393 1.018-.151 1.137.504 1.776 1.281 2.395.495.395.876.338 1.143-.168.452-.859.697-1.758.589-2.732-.061-.537.257-.893.641-1.208.073-.061.174-.151.241-.14.073.011.184.141.178.213-.112 1.352.84 2.508.721 3.866-.01.12.216.321.363.367.157.046.478.007.525-.095.67-1.341 1.737-2.452 2.255-3.88.352-.973.383-2.067-.07-3.001-.247-.505-.586-.98-.786-1.504-.574-1.512-1.909-1.671-3.033-1.898zm-6.434 9.633c-.056-.083-.099-.166-.161-.237-.706-.877-1.452-1.485-2.637-.647-.21.151-.782-.01-1.075-.192-.452-.282-1.005-.468-1.366-.231-.975.639-2.031.518-3.085.571-.854.045-1.718-.155-2.498.505-.294.249-.932.13-1.36-.188-.324-.242-.689-.399-1.037-.067-.485.466-1.087.317-1.657.352-.769.051-1.57-.007-2.306.187-1.771.467-1.747.479-4.128.014-.736-.142-1.676-.239-2.266.084-.946.524-1.88.402-2.826.43-1.751.061-3.516-.04-5.26.081-1.806.12-3.684-.427-5.426.5-.132.073-.47-.306-.737-.375-.292-.074-.557.066-.639.39a.496.496 0 0 0 .185.56.524.524 0 0 0 .193.087c.274.075.582.06.873.057a166.15 166.15 0 0 0 2.339-.043c.867-.022 1.827.255 2.574-.225.836-.535 1.344.5 2.135.21.442-.16.92-.219 1.304-.534.453.444 1.017.474 1.617.467.685-.007 1.358.033 1.91-.499.101-.096.435-.118.539-.029.6.508 1.153.597 1.782.029.193-.176.527-.114.796.093.598.46 1.248.53 1.861.034.474-.382.863-.249 1.29.064.435.306.945.282 1.378.057 1.374-.709 2.811-.562 4.216-.237.425.097.648-.031.987-.1 1.578-.328 3.191-.195 5.386.295.279.063.686.148.848.015.877-.739 2.1-.256 2.978-.905.18-.133.284-.104.491.037 1.008.695 1.703-.634 2.651-.423.018 0 .077-.126.131-.187zm4.802 34.37v-.018c-1.26.014-2.527.021-3.787.041-.843.015-.849.021-1.081.92-.047.18.005.43-.104.545-.712.779-.348 1.337.282 1.94.724.692 1.454.929 2.307.274.379-.291.714-.169 1.044.067.329.229.683.405 1.037.084.39-.351.844-.403 1.341-.397 1.164.006 2.334.017 3.497-.037.745-.032 1.652.323 2.196-.316.396-.459.108-1.305.66-1.807.047-.042.033-.197-.003-.275-.069-.16-.175-.446-.26-.445-1.534-.002-2.936-.818-4.51-.628-.86.111-1.74.043-2.619.052zM63.109 18.245c-.716.008-1.044-.08-1.292.032-.868.367-1.98.577-2.316 1.537-.458 1.326-.861 2.717-.602 4.16.044.263.192.543.371.744.387.432.845.798 1.244 1.224.46.497 1.054.443 1.63.4.253-.02.658-.155.71-.33.111-.335.162-.808-.005-1.087-.29-.487-.78-.852-1.16-1.29-1.062-1.22-.653-2.576.918-3.047.272-.081.593-.09.809-.248.74-.522 1.39-.457 2.128.037.397.265.818.01 1.213-.473.174-.212.197-.343-.028-.436-1.304-.555-2.631-1.048-3.62-1.223zm9.013-10.97c-.051-.167-.06-.448-.157-.483-.353-.116-.734-.13-1.1-.21-1.093-.24-2.216-.454-3.258-.807-.876-.296-1.694-.27-2.535-.236-.685.025-1.227.945-1.079 1.733.123.656.667.543 1.128.544a74.72 74.72 0 0 0 2.315-.013c.673-.02 1.346-.062 2.017-.1.689-.85 1.368.273 2.05.015.168-.068.344-.124.5-.21.067-.042.077-.155.119-.233zm16.155 10.689c.279-.02.77-.026 1.242-.103.115-.02.257-.278.268-.433.01-.156-.14-.465-.193-.46-1.084.127-2.052-.79-3.233-.21-.525.258-1.343.26-1.925-.271-.244-.225-.517-.156-.801-.07-1.751.545-3.517 1.509-5.186 2.842a.45.45 0 0 0-.163.235c-.01.053.075.142.136.183.074.053.19.118.256.093 1.6-.567 3.014-1.532 4.663-2.022.973-.292 1.929-.523 2.781-.108.67.322 1.29.303 2.155.324zM83.87 4.722c-.678.007-1.266-.004-1.847.038-.128.007-.234.205-.355.32.074.065.142.178.22.183.765.064 1.612-.077 2.275.203.658.28 1.266.429 1.944.386.879-.051 1.657.22 2.484.487.919.296 1.795.58 2.565 1.15.3.225.618.502.97.57.65.125 1.31-.032 1.944.404.672.459 1.516.05 2.281.149.079.01.191-.217.288-.332-.074-.06-.16-.178-.227-.17-.992.123-1.847-.46-2.764-.557-.812-.081-1.481-.17-2.064-.803-.368-.403-.731-1.01-1.392-.93-.83.099-1.348-.74-2.2-.574-.46.089-1.108.155-1.413-.087-.893-.684-1.865-.374-2.709-.437zm-1.644 18.472c-.761-.267-1.744.25-2.574.822-.746.51-1.743.186-2.365.928-.126.15-.55.108-.83.08-.631-.058-1.082.27-1.576.573-.199.122-.58.072-.553.383.007.09.512.24.753.19.914-.184 1.738-.78 2.733-.598.727-.665 1.88-.385 2.564-1.133a682.04 682.04 0 0 0 3.187-.094c.085 0 .2-.05.241-.116.09-.15.203-.325.195-.486-.014-.156-.144-.4-.259-.428-.365-.08-.753-.07-1.517-.121h.001zm-27.644 170.9c.957-.01 1.921.004 2.879-.06.108-.008.23-.445.264-.697.012-.078-.343-.307-.415-.264-1.512.811-3.158.47-4.751.535-.388.016-.777.002-1.157.048-.176.02-.388.1-.49.226-.101.127-.177.415-.103.51.24.296-.16.378.16.213 1.17-.622 2.409-.354 3.613-.511zm17.35-171.932c1.044.084 1.232.029 1.838-.534.101-.09.124-.288.134-.438.006-.048-.14-.154-.225-.153-1.31-.046-2.648.124-3.898-.484-.047-.024-.3.212-.335.356-.034.156.03.46.127.495.87.307 1.758.573 2.36.758zm94.718 101.887c-.038-.209.186-.809-.368-.983-.852-.26-.739.624-1.019 1.015-.155.211-.213.487-.295.739-.024.066.02.185.076.244.282.332.675.244 1.045.246.333.002.494-.214.57-.478.035-.18-.004-.377-.009-.783zm-71.388-107.9v.019c.377-.004.76.02 1.134-.024.157-.02.368-.16.433-.304.183-.396.559-.986.411-1.194-.381-.54-.781.044-1.173.228-.584.27-1.182.509-1.768.772-.246.11-.276.254-.116.372.073.053.152.136.232.14.284.01.568-.005.848-.008v-.001zm-19.59-6.12c-.987-.462-1.895.73-3.054.618-.06-.005-.166.223-.213.355-.012.03.14.166.213.159.563-.03 1.256.112 1.664-.161.717-.474 1.446-.374 2.184-.46.092-.007.168-.217.215-.343.012-.03-.13-.154-.213-.165-.183-.028-.377-.008-.795-.004zM59.97 194.077c.873-.009 1.177.03 1.455-.027.284-.057.512-.245.453-.591a.61.61 0 0 0-.08-.25c-.112-.19-.264-.176-.45.017-.377.386-.881.29-1.347.337-.097.007-.18.217-.239.349-.012.018.135.148.22.159.188.028.382.02-.012.006zm12.89-.663v.012c-.375.004-.75-.016-1.12.024-.11.013-.192.205-.287.314.073.053.152.159.225.159a68.014 68.014 0 0 0 2.213-.06c.072-.001.144-.109.216-.17-.135-.094-.258-.254-.404-.276-.28-.039-.563-.006-.842-.003zM99.346 8.604c-.903.01-1.194-.023-1.472.033-.127.026-.223.212-.336.32.073.066.135.149.213.184.257.11.566.15.768.315.459.377.642-.025.87-.26.095-.097.118-.29.128-.44.006-.046-.134-.141-.22-.152-.182-.022-.375-.014.05 0zM65.994 192.89c-.327.075-.76-.105-1.027.262a.709.709 0 0 0-.092.521c.051.245.215.273.402.175.331-.171.675-.312 1.013-.477.084-.042.144-.121.216-.187a9.733 9.733 0 0 1-.512-.294zM86.96 22.689c-.051-.155-.101-.316-.169-.465-.013-.023-.158-.022-.2.014-.204.176-.396.363-.582.55-.144.15-.094.324.156.364.364.055.728.028.795-.463zM67.852 193.713c.146.094.281.248.44.271a.691.691 0 0 0 .47-.167c.163-.157-.132-.405-.458-.342-.158.032-.302.159-.452.238zM90.698 20.425c-.03.054-.089.12-.077.156.026.072.13.178.147.172.205-.092.24-.218.1-.318-.037-.023-.109-.005-.17-.01zm-14.448-.378c-.055-.023-.121-.082-.164-.07-.072.025-.126.097-.186.146.116.028.224.063.34.092a.788.788 0 0 0 .01-.168zM58.864 193.809c-.055-.059-.112-.16-.165-.165-.061 0-.121.097-.181.151.086.059.172.118.263.171.023-.054.054-.103.083-.157zM93.498 9.414c-.023.048-.083.108-.065.15.026.065.099.118.148.177.03-.107.065-.215.094-.323a1.667 1.667 0 0 0-.177-.004z"/><path d="M98.163 76.31c-.082-.363-.04-.854-.266-1.073-1.275-1.236-1.634-2.983-2.618-4.372-.109-1.618-.967-3.032-1.275-4.577a15.459 15.459 0 0 0-1.005-3.205c-.292-.667-.269-1.29-.27-1.946 0-.072.108-.163.186-.218.035-.024.162-.001.183.034.128.25.247.5.359.762.367.857 1.18 1.56 1.022 2.59-.175 1.13 1.089 1.464 1.264 2.485.2 1.157.463 2.41 1.502 3.265.178.148.164.525.246.793.56 1.835 2.023 3.176 2.793 4.896.038.083.124.178.209.195.79.207 1.066 1.047 1.657 1.38.604.34 1.035.869 1.625 1.179.251.129.561.168.786.327.342.235.723.219 1.083.317.632.178 1.289.404 1.82.775.519.365.96-.41 1.511.11.417.396 1.094.227 1.592-.185.42-.345.931-.225 1.404-.212.721.022 1.338-.122 1.81-.7.329-.4.783-.505 1.291-.546.255-.021.556-.198.73-.39.55-.61.882-1.373 1.731-1.765.694-.318 1.007-1.11 1.339-1.808.118-.246.37-.44.587-.634 1.788-1.62 3.002-3.69 4.393-5.618a83.543 83.543 0 0 0 2.54-3.763c.351-.548.77-1.15.842-1.76.088-.743.411-1.243.896-1.726.755-.755 1.194-1.657 1.461-2.706.203-.803.747-1.514 1.048-2.3.123-.325.142-.84-.037-1.088-.535-.742-.644-1.876-1.829-2.055-.37-.642-.728-1.29-1.118-1.925-.247-.41-1.399-.493-1.534-.08-.316.973-1.086 1.56-1.745 2.25-.198.21-.456.399-.581.645-.546 1.106-1.09 2.29-2.04 3.023-.997.776-1.708 1.764-2.449 2.686-1.261 1.574-2.524 3.13-3.987 4.526-1.41 1.342-2.98 2.375-5.022 2.45-.848.6-1.586.126-2.27-.298-.293-.182-.644-.626-.604-.902.175-1.12-.833-1.934-.712-3.011-.948-1.281-1.164-2.743-1.259-4.29-.046-.807-.623-1.554-.561-2.458.052-.76-.119-1.463-.497-2.188-.285-.541-.13-1.32-.137-1.995-.007-.67.077-1.352-.487-1.884.871-.72.095-1.334-.089-2.026-.164-.638-.069-1.332-.161-1.995-.04-.256-.327-.474-.427-.736-.057-.15-.005-.45.104-.516.3-.188.546.09.633.298.398.94.797 1.887.996 2.895.257 1.289.797 2.52.667 3.89-.071.743.79 1.295.581 2.159-.162.677.057 1.302.518 1.87.147.185.109.56.07.843-.219 1.646.955 3.099.677 4.75.913.96.455 2.376 1.189 3.426.628.908 1.335 1.26 2.495.906a.653.653 0 0 0 .377-.387c.07-.275.054-.574.051-.861-.047-4.812-.13-9.63-.134-14.441-.002-1.262-.929-2.31-.7-3.586-.674-.596-.519-1.393-.557-2.152-.024-.472.073-1.106-.191-1.38-.926-.94.195-1.555.259-2.321.022-.215.216-.181.43-.005.709.579 1.058 1.418 1.158 2.218.099.782.331 1.455.636 2.157.217.494.315 1.03.471 1.555-.57.485.088.8.147 1.206.086.567.055 1.154.073 1.733.013.478-.043.975.349 1.353.178.172.143.286-.019.485-.55.68-.208 1.485-.26 2.232-.052.754-.159 1.538.484 2.183.105.107-.03.556-.173.767-.316.464-.269.834.026 1.297.192.29.361.815.225 1.062-.66 1.167-.52 2.409-.469 3.633.024.64-.505 1.022-.505 1.596.002.16.108.388.242.47.14.082.449.108.54.018 1.241-1.221 2.458-2.465 3.687-3.704-.006-1.028 1.288-.815 1.534-1.53.294-.863.948-1.414 1.499-2.071.359-.43.577-.97.918-1.415.352-.458.803-.845 1.149-1.31.155-.21.146-.533.222-.803.046-.18.073-.48.17-.51.912-.267.793-1.138 1.157-1.728.649-1.047 1.535-2 2.669-2.6.403-.212.588-.424.609-.83.01-.192-.048-.442.053-.563.623-.73 1.014-1.535 1.301-2.47.263-.876 1.061-1.59 1.446-2.42.474-1.026 1.523-1.498 1.998-2.418.427-.83 1.042-1.11 1.882-1.437 1.219-.473 2.307-1.304 3.383-2.068.445-.316.937-.74.912-1.397a1.5 1.5 0 0 1 .568-1.267c.685-.558.593-1.758 1.536-2.001.731-.188 1.568-.18 2.315-.043 1.245.232 2.186-.71 3.344-.687.9-.805 2.018-.554 3.055-.553.945.002 1.936-.32 2.833.31.208.148.547.156.826.153.879-.004 1.67.197 2.503.51.67.257 1.492.045 2.182.57.313.236.715-.074.77-.547l-.041.043 1.218.525c.022.37-.071.748.223 1.073.626.693 1.438 1.234 1.704 2.212.063.232.369.528.606.567.966.175 1.077.88 1.176 1.638.019.167.615.31.735.17.114-.132.275-.36.225-.467a56.326 56.326 0 0 0-1.327-2.73c-.081-.16-.235-.356-.392-.402-1.229-.352-1.818-1.601-2.987-2.025-.023-1.052-.597-1.948-.935-2.901-.344-.965-.971-1.813-.917-2.932.024-.52-.737-.9-.544-1.554.053-.174.129-.342.194-.51.123.082.287.134.354.24.376.583.504.599.856.189.438-.507.474-1.075.154-1.58-.334-.516-.509-1.017-.351-1.61.023-.09.094-.204.166-.223.061-.02.171.064.239.129.202.2.562.413.57.628.027 1.392 1.099 2.36 1.416 3.66.286 1.152 1.019 2.226 1.678 3.259.74 1.158.387 2.632 1.248 3.729-.06.616.314 1.072.569 1.584.842 1.7 1.049 3.426.129 5.175.234.919-.461 1.625-.664 2.435-.226.899-.245 1.915-.668 2.685-.421.77-.174 1.747-.895 2.365.038 1.17-.497 2.169-.909 3.226-.367.942-.889 1.874-.883 2.938-.808 1.02-.484 2.349-1.035 3.478-.486.986-.607 2.147-.71 3.296-.076.796-.448 1.595-.548 2.45-.056.48-.664.893-1.034 1.333-.239.283-.489.19-.691-.04-.185-.214-.411-.438-.487-.695-.189-.62-.529-.7-1.072-.443-.337.16-.699.289-1.063.37-.725.164-1.122-.687-1.896-.577-.648.09-1.368.218-1.961-.278-.068-.053-.208-.13-.238-.111-.84.75-1.52-.456-2.402-.154-1.069.37-2.068-.17-2.996-.691-.341-.194-.653-.436-1.065-.365-.998.172-1.871-.43-2.786-.485-1.663-.101-3.055-1.02-4.664-1.235-.273-.04-.458-.3-.455-.635a237.255 237.255 0 0 0-.038-4.046c-.01-.395.052-.742.303-1.074.448-.596.229-1.282.179-1.94-.007-.076-.1-.183-.173-.218-.048-.023-.169.038-.223.098-.21.2-.468.382-.593.622-.297.583-.379 1.373-.829 1.773-.877.768-.962 1.827-1.364 2.764-.331.769-.486 1.553-1.047 2.277-.55.7-.508 1.799-1.27 2.47-.006 0 .179.31.282.314.485.037.982-.028 1.461.026 1.142.144 2.288-.24 3.439.245.944.402 2.013.528 3.015.727.765.153 1.319.876 2.159.664.743-.187 1.271.38 1.885.6.712.25 1.354.704 2.037 1.05.249.129.588.143.779.326 1.954 1.85 4.345 3.212 6.095 5.29.257.309.394.613.472 1.007.224 1.15.829 2.119 1.752 2.856 1.597 1.28 2.424 3.209 3.99 4.513.178.147.151.524.215.799.21.924.937 1.407 1.698 1.805.226.117.608.083.855-.021.524-.227 1.098-.454 1.493-.835 1.2-1.173 2.832-1.56 4.223-2.383.308-.182.725-.223 1.095-.25.95-.07 1.922.08 2.788-.538.307-.22 1.182.5 1.253.973.17 1.098-.262 2.065-.816 2.95-.351.56-.923.99-1.353 1.508-.095.115-.098.396-.024.545.068.142.282.278.445.294.388.05.781.057 1.17.023.625-.054 1.117.12 1.583.55.337.314.804.489 1.213.735.19.118.244.68.051.753-.928.38-1.576 1.05-2.113 1.858-.041.066-.022.192.003.287.064.238.191.285.379.235 2.237-.574 2.927-.57 5.048-.036.365.092.753.135 1.136.143.781.022 1.563.007 2.339.01.687.735 1.653.396 2.462.638.724.22 1.342.75 2.065.983.547.173.946.563 1.577.658 1.743.257 2.889 1.356 3.591 2.939.192.428.457.832.656 1.254.075.16.151.465.073.53-.847.746-.143 1.91-.765 2.694-.334.416-.294.888-.318 1.366-.015.275-.037.592-.174.815-.542.86-1.687 1.363-1.571 2.635.015.114-.226.325-.383.375-.81.23-1.281.88-1.784 1.436-.988 1.092-2.199 1.805-3.532 2.399-.356.159-.669.36-1.075.334-.885-.05-1.664.275-2.498.511-.894.255-1.891 1.108-2.901.168-2.54.022-5.079.031-7.618.076-.533.012-.831.445-1.106.843a.426.426 0 0 0-.077.263c.116.597-.279 1.056-.405 1.589.728.739-.399 1.289-.209 2.088.211.871.344 1.922-.253 2.789-.251.367.102.495.202.721.229.512.495 1.005.689 1.529.043.113-.124.324-.232.469-.041.06-.168.085-.252.086-1.856.026-3.71.064-5.564.06-.915-.003-1.46-.535-1.5-1.389-.024-.478-.206-1.092.02-1.423.657-.952-.237-1.767-.084-2.647.126-.707-.757-1.11-.602-1.865.121-.587-.085-1.105-.472-1.597-.271-.344.023-.706.237-1.031.095-.144.202-.421.134-.521-.844-1.187.069-2.04.457-3.054.454-1.165 1.387-1.808 2.238-2.577.942.206 1.562-.769 2.454-.671 1.129.125 2.335-.426 3.393.424.134.106.563-.03.774-.17.349-.219.694-.336 1.094-.293.594.072 1.103.527 1.812.023.487-.346 1.347.081 1.923-.433.324-.29.474.156.723.189.377.056.906.236 1.11.066.769-.66 1.65-.532 2.498-.493 2.195.102 3.612-1.12 4.82-2.694.095-.12.098-.413.018-.538-.21-.32-.528-.568-.749-.876-.775-1.068-1.85-1.218-3.08-1.163-.533.023-.876.774-1.561.256-.324-.248-.924-.176-1.396-.177a3.052 3.052 0 0 1-1.648-.46c-.293-.177-.747-.112-1.134-.114-.977-.007-1.963.105-2.928.002-1.498-.164-2.832.406-4.185.827-.544.168-1.056.4-1.644.436-1.181.067-1.97-.54-2.116-1.758-.101-.854-.074-1.715-.144-2.575-.007-.096-.33-.266-.457-.23-.726.206-1.351.625-2.188.593-.74-.034-1.318.797-2.163.615-.956.74-1.717-.167-2.567-.296.003-.855-1.026-.742-1.306-1.355-.155-.34-.4-.635-.604-.956-.846-1.348-2.392-1.42-3.683-1.963-1.041.19-1.829-.465-2.718-.802-.354-.134-.718-.267-1.036-.467-1.166-.753-2.411-1.032-3.818-1.035-2.478-.01-3.49.043-5.645.879-1.231.473-2.463.959-3.65 1.557-1.35.678-2.767 1.35-4.35 1.224-.746-.057-1.132.718-1.897.6-.668-.1-1.364-.01-2.048.022-.285.015-.594.043-.835.165-1.789.92-3.593 1.766-5.686 1.657-1.01 1.17-2.751-.013-3.775 1.134-.042.048-.188.014-.284.02-1.333.093-2.718-.155-3.952.587-.604-.364-1.153-.155-1.775.043-.991.303-2.15-.3-3.093.48-1.135-.74-2.539.046-3.6-.53-.707-.38-1.045.216-1.538.108-.45-.103-.865-.373-1.314-.482-.462-.11-.987.142-1.415-.182-.702-.543-1.646-.347-2.41-.865a4.186 4.186 0 0 0-1.844-.716c-.814-.1-1.63-.544-2.237-1.19-.865-.923-1.999-1.496-3.072-2.083-1.299-.71-1.892-1.797-2.361-3.047-.025-.06.053-.18.119-.24.041-.043.157-.068.206-.045.426.21 1.07.336 1.225.68.578 1.238 1.47 1.85 2.818 2.147.674.148 1.233.83 1.898 1.223 1.122.663 2.23 1.028 3.544.876.872-.1 1.768-.12 2.378.722.104.149.3.242.47.342.073.047.182.046.279.045 1.437-.01 2.89-.163 4.242.51.985-.8 1.936.23 2.958.053 1.138-.198 2.34-.067 3.51-.08 1.072-.011 2.157-.1 3.218-.016.934.073 1.549-.746 2.478-.648.77.08 1.564.013 2.339-.061.26-.021.493-.3.759-.373 1.282-.343 2.505-.947 3.895-.795.983.103 1.749-.814 2.782-.58 1.002.223 1.825-.497 2.764-.58.539-.047.905-.296 1.241-.652.437-.471.9-.745 1.483-.213.177.165.304.14.49-.041.276-.272.556-.706.877-.74 1.271-.132 2.35-.67 3.496-1.166 1.11-.478 2.319-.766 3.46-1.227.26-.104.556-.12.841-.134.484-.035.975-.04 1.466-.058 3.417-.09 3.418-.078 6.913 1.397.773.327 1.6.539 2.408.793.067.023.182-.05.242-.11.048-.042.102-.174.076-.204-1.263-1.427-2.016-3.213-3.408-4.555-1.856-1.791-3.838-3.492-4.962-5.895-.117-.244-.386-.426-.607-.62-.581-.533-1.091-1.077-1.04-1.963.015-.257-.466-.48-.676-.327-1.046.764-2.438.409-3.497 1.113-.216.146-.618.03-.816.182-1.323.989-2.831 1.113-4.402 1.046-.685-.03-1.283.145-1.934.433-.664.294-1.625-.025-2.257.293-.748.379-1.457.464-2.226.484-.679.02-1.34-.015-1.922.475-.342.29-.721.032-1.027-.234-.38-.33-.73-.202-.981.136-.221.295-.276.804-.559.956-1.379.768-2.385 1.933-3.506 2.979-.121.109-2.693.997-2.929 1-1.661.023-3.322.017-4.975.065-.552.018-.901-.26-1.262-.59-.282-.255-.546-.557-.993-.528-1.727.114-2.753-1.172-3.981-2.008-.86-.588-1.375-1.611-2.415-2.013l.084.03v-.001zm61.579-49.282c.062.149.088.357.205.44.146.106.302-.04.203-.206-.067-.112-.286-.134-.439-.198-.017-.454-.022-.914-.056-1.368-.008-.072-.106-.155-.179-.202-.037-.023-.163.02-.169.056-.07.252-.146.51-.167.767-.032.407.141.686.602.71zm.235 20.854-.625-.03.038.037c.029-1.136-.207-2.282.174-3.41.358-1.056.838-2.083.934-3.22.991-.847.303-2.197 1.026-3.197.483-.67-.419-1.717-1.329-1.743-.193-.004-.431-.044-.569.054-.415.285-.722.378-1.253.109-.475-.24-1.146-.06-1.705-.168-.644-.124-1.285-.566-1.891-.505-1.319.133-2.482-.368-3.572-.83-.89-.372-1.73-.106-2.539-.342-.899-.266-1.658-.921-2.623-1.05-.285-.037-.582 0-.879-.013-.291-.015-.654.049-.85-.093-1.148-.854-2.447-.386-3.678-.456-.425-.026-.603.24-.799.636-.712 1.442-.883 1.838 1.055 1.68.29-.027.68.095.86-.05 1.034-.807 2.232-.455 3.364-.563.999-.094 1.754.729 2.735.67.539.527 1.264.878 1.461 1.712.114.483.566.736.975 1.006 1.087.718 1.126 2.027.054 2.696-.302.188-.738.15-1.1.257-.133.043-.247.194-.33.32-.025.03.08.166.148.238.135.136.264.35.428.378 1.233.226 1.104 1.124 1.022 1.985-.027.294-.304.404-.57.544-.626.336-.668.42-.279 1.044.339.54.466 1.047.194 1.6-.35.709-1.147 1.016-1.975.624-.574-.268-.994-.497-1.553-.013-.186.164-.543.215-.816.194-2.001-.17-4.073.57-5.999-.45-.744.152-1.665-.36-2.203.293-.299.356-.254 1.108-.158 1.645.219 1.2-.546 2.194-.569 3.33-.02.945.093 1.882-.497 2.767-.221.33-.135.976.021 1.405.194.542.812.48 1.265.399.811-.146 1.528 1.143 2.366.13.861.565 1.828.357 2.768.37.285.004.659-.042.843.11.857.716 1.853.43 2.799.456.583.012 1.17.005 1.758-.013.4-.01.77.022 1.083.31.569.52 1.115 1.185 1.942.357.816.828 2.027.14 2.968.81.721.514 1.154.21 1.546-.523.32-.596.641-1.155.543-1.871-.053-.376-.081-.782-.001-1.154.167-.797.321-1.63 1.148-2.08l-.044-.042c.023.974.052 1.954.075 2.928-.157.08-.435.136-.453.232a12.664 12.664 0 0 0-.114 1.65c.001.085.22.178.348.243.018.012.162-.133.161-.211.011-.652.01-1.303.009-1.955.868-.416 1.077-1.267 1.129-2.05.077-1.22.896-2.3.633-3.582-.045-.227.121-.593.314-.745 1.002-.794.767-1.873.761-2.901.163-.068.424-.094.477-.214.663-1.418.931-2.993 1.795-4.336.131-.204.024-.556.002-.843-.007-.083-.086-.172-.159-.225-.044-.036-.164-.034-.2.002-.252.278-.697.563-.7.85-.004.706-.296 1.283-.635 1.83-.583.94-.663 1.932-.555 2.977zm-28.597 14.76c-.829.189-1.945-.41-2.713.233-.781.654-1.285 1.628-1.882 2.483-.209.307-.308.685-.486 1.015a39.187 39.187 0 0 1-3.447 5.19c-.465.597-.84 1.265-1.313 1.85-.484.602-1.041 1.14-1.557 1.72-.023.03.014.155.057.197.067.059.178.13.244.105.538-.174 1.05-.43 1.6-.532.568-.101 1.101-.22 1.656-.412 1.335-.47 2.68-1.04 4.168-.846.697.089 1.289-.18 1.896-.54.741-.432 1.55-.74 2.461-.648.491.055.937-.088 1.359-.385.548-.383 1.369-.11 1.853-.695.422.342.797.302 1.242-.02.205-.145.562-.113.847-.11.673.01 1.423-.111 2.002.14.445.192.658.883 1.002 1.328.579.753 1.283 1.433 1.735 2.247.717 1.284 1.74 2.277 2.793 3.252.643.59 1.232 1.2 1.556 2.022 1.051.186 1.128 1.166 1.566 1.855.407.635.772 1.3 1.239 1.893.535.67.636 1.614 1.418 2.12.684.44.826 1.276 1.335 1.832.374.409.683.985 1.339 1.014.557.024.745-.57 1.155-.795 1.162-.635 2.35-1.215 3.414-2.045.445-.346 1.133-.55 1.157-1.107.025-.502-.333-1.048-.605-1.536-.185-.326-.479-.61-.778-.858-.912-.75-1.571-1.681-2.031-2.734-.155-.363-.323-.672-.598-.944-.54-.54-1.114-1-1.384-1.797-.163-.494-.696-1.063-1.183-1.213-.869-.271-1.065-1-1.496-1.568-.222-.296-.257-.78-.526-.98-1.522-1.156-1.848-3.305-3.647-4.218-.395-1.185-1.448-1.646-2.377-2.324-.996-.725-2.237-1.148-3.006-2.186-.246-.332-.641-.4-1.053-.365-.599.048-1.093-.204-1.641-.425-1.303-.53-2.741-.658-4.079-1.116a1.812 1.812 0 0 0-.553-.126c-.861-.002-1.74.019-2.739.03v-.001zm43.039 42.917c.904-.01 1.702-.132 2.455.004.959.169 1.525-.806 2.466-.642 1.239.219 2.207-.46 3.152-1.116.859-.595 1.708-1.208 2.567-1.797.151-.103.454-.124.489-.238.311-.96 1.117-1.537 1.721-2.266.06-.073.144-.151.161-.235.034-.186.068-.384.042-.57-.152-1.2.381-2.197.91-3.213.161-.312.301-.798.17-1.077-.471-1-.775-2.15-2.137-2.465-.54-.125-1.011-.52-1.535-.76-.956-.438-1.516-.133-1.543.81-.018.575.068 1.172-.054 1.73-.144.683-.701 1.25.24 1.91.666.465.634 1.476.199 2.084-.633.886-1.088 2.002-2.265 2.41-.549.19-1.007.507-1.463.876-.907.733-1.958 1.157-3.183 1.08-.582-.035-1.329-.201-1.72.078-1.077.759-2.244.425-3.37.556-.285.033-.679-.058-.848.093-.834.774-1.844.444-2.783.496-1.069.05-2.14.067-3.211.052-.594-.005-1.114.072-1.632.436-.536.371-1.225.521-1.784.868-.494.298-.847.703-.87 1.384-.078 2.267-.087 2.524 1 5.507.175.477.375.995.118 1.35-.783 1.073-.315 2.227-.37 3.346-.004.125.241.374.369.378.569.006 1.176.036 1.707-.137.429-.142.758-.529.788-1.097.081-1.501-.361-3.057.484-4.476.042-.073.04-.24-.009-.275-1.088-.808.111-1.544.059-2.308-.051-.789.496-1.225.989-1.661.342-.302.874-.398 1.223-.694.792-.672 1.994.05 2.699-.83.41.354.81.35 1.213-.013 1.142.842 2.451.266 3.556.422zm-30.176-58.674c1.364-.015 2.727-.023 4.091-.056.121-.001.253-.194.355-.32.017-.025-.082-.173-.155-.232-.22-.19-.46-.521-.679-.513-1.326.05-2.664-.318-3.99.336-.632.31-1.513.165-2.277.174-.158 0-.336-.182-.476-.312-.189-.172-.544-.335-.347-.636.185-.277.375-.692.861-.535.268.086.623.37.767.278.969-.59 2.048-.596 3.079-.5 1.318.125 2.401-.551 3.61-.78.098-.018.185-.294.213-.461.051-.33-.224-.536-.532-.51-.576.055-.939.573-1.594.556-1.946-.05-3.897.03-5.842.045-.176.002-.401-.05-.523-.156a.647.647 0 0 1-.2-.482c.055-.533.493-.938.904-1.014 1.21-.222 2.323-.928 3.623-.708 1.385.23 2.531-.816 3.902-.747.206.01.432-.358.654-.54.186-.157.184-.312-.047-.453-.318-.2-.63-.496-.977-.552-1.487-.235-2.875.27-4.092.965-1.277.725-2.75.663-4.028 1.316-.465.238-1.151.06-1.733.048-.316-.008-.56-.167-.533-.514.01-.167.092-.443.201-.48.718-.223 1.306-.845 2.149-.723.808.117 1.477-.237 2.182-.573 1.103-.526 2.269-.915 3.453-1.24.176-.05.394-.092.507-.213.102-.115.112-.336.122-.51.005-.071-.069-.184-.136-.213a2.257 2.257 0 0 0-.53-.174c-.806-.153-1.495.153-2.182.537-.673.372-1.366-.798-2.066-.02-1.086-.09-1.906.912-3.035.72-.237-.04-.599.108-.773.296-.557.603-1.178.843-2.033.912-.708.056-1.412.505-2.056.895-.398.237-.72.653-.994 1.039-.263.367-.275.893-.88 1.013-.448.089-.37.62-.597.904-.298.373-.634.73-.989 1.056-.359.339-.5.783-.719 1.197-.481.926-.719 1.957-1.182 2.84-.539 1.035-.375 1.72.157 2.605.66 1.1 1.638 1.872 2.55 2.71.062.054.334-.032.442-.13.672-.592.917-1.426 1.132-2.235.1-.372.132-.737.426-1.02.624-.611 1.148-1.364 1.865-1.82 1.36-.858 2.591-2.51 4.57-1.083.257.188.764.05 1.152.047 1.085-.005 2.158-.023 3.23-.034zm35.746 46.49-.001-.035c.582-.006 1.17.018 1.752-.03.241-.02.294-.225.202-.397-.224-.41-.352-1.078-.674-1.188-.664-.227-.988-.522-.947-1.192.026-.353-.206-.59-.479-.593-.958-.013-1.991-.29-2.853.186-.609.336-.931.29-1.527-.031-1.47-.81-2.97-.997-4.684-.357-1.292.48-2.811.622-4.196-.164-.524-.3-1.222-.286-1.686-.012-.812.48-1.526 1.146-1.953 2.03-.024.042.093.16.154.23.344.416.228.907.258 1.379.014.19-.026.467.085.55.201.159.622.37.724.284 1.466-1.18 3.2-1.152 4.939-1.176.763-.008 1.566.18 2.208-.472.089-.097.44-.106.539-.012.833.792 1.864.327 2.799.46.352.05.608.675.967.307.545-.556 1.375-.05 1.878-.618.3-.332.496-.09.535.198.053.328.218.553.505.598.473.06.97.037 1.455.056zm-24.207-2.101c.145-.002.522.108.708-.026.866-.631 1.925-.81 2.898-1.083 1.28-.36 2.288-1.34 3.682-1.396.345-.016.688-.295 1.025-.472 1.513-.781 3.025-1.556 4.526-2.356.325-.176.607-.442.895-.673.072-.054.151-.163.143-.234-.007-.06-.135-.154-.214-.16-.473-.03-1.038-.204-1.411-.02-.893.452-1.801.563-2.765.567-.266.003-.525.19-.791.272-.538.173-1.179.204-1.588.53-.679.54-1.004-.371-1.542-.21-.09.025-.193-.01-.291.01-.671.126-2.417 1.185-3.015 1.873-.192.217-.305.44-.644.467-1.326.122-2.077 1.242-3.156 1.803-.367.19-.068.455.104.65.35.385.764.572 1.436.457zm5.07-8.998c.107.866.041 1.41.326 1.975.545 1.059.46 1.03 1.497.612 1.286-.516 2.288-1.351 3.266-2.3.558-.544.676-1.4 1.357-1.766.831-.44.832-1.468 1.578-1.948.174-.11.081-.354-.18-.38-.479-.043-1.062-.175-1.442.027-1.766.927-3.705 1.474-5.459 2.42-.62.34-1.014.889-.943 1.36zm-12.671-51.048c-.43.005-.825-.01-1.213.025-.175.014-.338.135-.512.203.098.112.172.255.294.326.33.187.665.375 1.018.497.797.284 1.768-.18 2.486.583.135.148.57.066.854.027 1.09-.143 2.076.235 3.079.565.439.144.87.283 1.308.422.467-.56.812-.026 1.225.106.268.087.583.03.874.015.085-.007.229-.092.229-.14.004-.143-.004-.364-.096-.423-.562-.36-1.131-.945-1.72-.968-1.268-.047-2.361-.788-3.626-.733-.576.024-1.284.146-1.699-.125-.836-.541-1.694-.28-2.501-.38zm12.49-1.783c-.065.048-.145.08-.192.14a.595.595 0 0 0-.131.234c-.154.922.502 1.555.855 2.292.061-.042.139-.073.187-.133a.481.481 0 0 0 .131-.235c.129-.91-.472-1.56-.85-2.298zm-2.133-3.283c-.002-.126.028-.228-.009-.305-.075-.16-.186-.303-.278-.451-.095.15-.246.29-.268.445-.04.263-.03.55.021.813.02.09.214.165.341.205.031.012.151-.12.162-.205.04-.173.026-.353.031-.502zm.236 1.623c-.03.055-.09.127-.077.169.025.07.129.19.154.177.211-.098.245-.23.099-.336-.036-.03-.115-.004-.176-.01zm-36.757-7.892c-.84.212-1.603-.276-2.423-.5-1.553.506-2.518-.727-3.688-1.282-.67-.316-1.151-1.022-1.697-1.572a.552.552 0 0 1-.113-.454c.311-.876.513-1.84 1.026-2.587.394-.566 1.147-.963 1.934-1.05.854-.092 1.753.108 2.497-.551.162-.146.617-.127.848-.01 2.128 1.072 4.327 2.052 5.977 3.846.454.497.624 2.193.248 2.706-.096.132-.331.248-.482.238-.65-.065-1.069.388-1.588.627-1.236.575-1.236.58-2.539.589zm-2.391-6.323v-.012c-.388.004-.781.05-1.163.006-1.22-.136-2.008.494-2.658 1.39-.292.405-.228 1.27.187 1.566 1.155.824 2.339 1.607 3.613 2.239.456.222 1.071-.113 1.363-.63.635-1.137.978-2.516 2.52-2.903.266-.07.281-.278.086-.39-.324-.187-.749-.278-.975-.54-.578-.651-1.294-.774-2.094-.736-.296.015-.588.006-.879.01z"/><path d="M98.108 76.263c.023.478.114.98-.38 1.296-.794.498-1.545 1.086-2.575 1.097a2.27 2.27 0 0 0-1.076.299c-2.53 1.52-5.45 2.055-8.13 3.213-.856.368-1.91.35-2.688.812-.764.456-1.73.263-2.378.934-.083.09-.363.016-.545-.018-.079-.017-.196-.118-.203-.19-.025-.178-.065-.5.007-.531 1.63-.717 2.972-2.07 4.898-2.121.188-.002.467-.011.538-.125.925-1.38 2.658-.854 3.868-1.596.355-.22.932-.16 1.266-.552.48-.555 1.14-.562 1.799-.736 1.542-.4 3.025-1.007 4.535-1.513.356-.117.738-.151 1.107-.221l-.043-.047v-.001zm59.927-45.17c-.832-.146-.763-1.002-1.132-1.5-.548-.741-1.066-1.633-1.191-2.516-.192-1.41-.05-2.863-.042-4.292-.001-.071.114-.15.18-.223.061.065.165.13.177.2.059.37.118.747.14 1.124.045.765-.175 1.658.153 2.264.544 1.004.509 2.224 1.27 3.089.528.598.395 1.24.396 1.897l.049-.043zM93.952 25.74c-.575.622-.342 1.42-.528 2.128-.105.39-.574.7-.904 1.02-.138.133-.68-.112-.712-.297-.02-.09-.045-.185-.034-.275.145-1.131.497-2.163 1.496-2.85.109-.072.352.033.522.09.06.012.104.12.16.184zm65.4 22.113c.002.18.022.365.012.544-.015.228.019.556-.37.417-.098-.035-.168-.315-.151-.47.027-.3.243-.446.547-.461l-.038-.03zm-2.233 6.427c-.002-.18-.016-.365 0-.544.023-.222-.023-.556.366-.417.097.035.161.315.145.47-.034.3-.25.44-.559.455l.048.036zm13.058 36.445c.024.06.086.13.074.173-.029.072-.101.12-.161.18-.032-.112-.057-.232-.09-.345.059-.006.118-.009.177-.008zm-4.753-.038c.068.07.196.17.184.2-.13.277-.281.273-.382-.02-.012-.03.126-.114.198-.18z"/></g></svg>