<svg width="48" height="48" viewBox="0 0 48 48" fill="none" xmlns="http://www.w3.org/2000/svg">
<path fill-rule="evenodd" clip-rule="evenodd" d="M47.7955 1.44687C47.723 0.793185 47.207 0.276827 46.5529 0.204317C35.4237 -1.03165 25.9367 3.42002 18.1981 11.3855C15.9835 13.6651 14.0626 16.0781 12.423 18.4068C9.648 18.2941 6.57125 19.5494 4.38995 21.7306L0.411888 25.7084C-0.0382167 26.1584 -0.129776 26.855 0.188484 27.4061C0.506743 27.9573 1.15535 28.2257 1.77062 28.0613C2.69354 27.8133 4.19328 27.5251 5.63405 27.4581C6.1607 27.4336 6.59835 27.4413 6.96202 27.4691C6.56665 28.2294 6.21289 28.9342 5.92307 29.5116L5.923 29.5117L5.92273 29.5123L5.92266 29.5124L5.92263 29.5125C5.56916 30.2167 5.31088 30.7312 5.18834 30.9258C4.83895 31.4817 4.91989 32.205 5.38428 32.6693L7.68607 34.9709C4.33611 39.5394 4.28081 41.8792 4.29253 42.2106C4.31706 42.9126 4.86459 43.5703 5.77139 43.5703C6.5566 43.5703 8.80858 43.2371 12.9082 40.1928L15.3294 42.6138C15.7971 43.0814 16.5277 43.1598 17.0844 42.8024C17.3136 42.655 17.8917 42.3607 18.6663 41.9664C19.1716 41.7092 19.7605 41.4094 20.3908 41.0801C20.4172 42.2699 20.2557 44.0171 19.9052 46.3854C19.7059 47.7286 21.339 48.5372 22.2908 47.5858L26.2689 43.608C28.3202 41.5569 29.5097 38.5104 29.4218 35.6525C31.8752 33.9382 34.4275 31.916 36.8106 29.5792C44.7008 21.8423 49.0158 12.4277 47.7955 1.44687ZM45.1052 2.89414C45.3297 5.92637 45.0901 8.86558 44.3925 11.7099C42.6598 11.1643 40.966 10.0924 39.4362 8.56309C37.9009 7.02756 36.8268 5.32688 36.2833 3.58811C39.1267 2.90073 42.068 2.66782 45.1052 2.89414ZM6.37861 23.7195L5.45057 24.6478C6.43684 24.5991 7.46084 24.6368 8.38192 24.8401C8.97815 23.7792 9.65422 22.6296 10.4127 21.4259C8.96094 21.7892 7.50112 22.5974 6.37861 23.7195ZM8.32619 30.994L8.32666 30.9931L8.32668 30.9931L8.32669 30.993L8.3267 30.993C8.59486 30.4589 8.93437 29.7826 9.46012 28.7893L11.3114 30.6409C10.6226 31.3799 10.0007 32.0819 9.44034 32.7473L8.112 31.4194C8.17906 31.2871 8.24921 31.1474 8.32506 30.9963L8.32619 30.994ZM18.2176 29.6437C16.9969 29.67 16.0143 29.8572 14.9896 30.8815C10.6676 35.2031 8.71263 38.2321 7.82964 40.0562C9.61943 39.186 12.6123 37.2363 16.9786 32.8704C18 31.849 18.1908 30.8331 18.2176 29.6437ZM16.5713 39.8782L15.121 38.4276C15.7832 37.8651 16.4831 37.2415 17.2214 36.55L19.1921 38.5206C18.2947 38.9997 17.7595 39.2719 17.2547 39.5287L17.2544 39.5288L17.2541 39.529L17.2538 39.5291C17.03 39.6429 16.8122 39.7537 16.5713 39.8782ZM23.1537 42.7452L24.2795 41.6191C25.3295 40.5696 26.0836 39.126 26.4191 37.6392C25.242 38.3778 24.1187 39.0381 23.0845 39.6204C23.2134 40.3872 23.2449 41.3811 23.1537 42.7452ZM21.7525 37.1034L19.2309 34.5817C21.0318 32.6003 21.0298 30.6885 21.0275 28.4798L21.0273 28.2393C21.0273 27.4625 20.3978 26.833 19.621 26.833C19.5042 26.833 19.3877 26.8327 19.2713 26.8323C17.2368 26.8264 15.2698 26.8207 13.2781 28.6296L10.8701 26.2218C17.4455 14.6924 25.046 7.39304 33.5856 4.38718C34.2616 6.57456 35.5775 8.68211 37.4475 10.552C39.3087 12.4134 41.4065 13.7259 43.5845 14.4045C40.5609 22.8966 33.2629 30.4918 21.7525 37.1034ZM35.4585 12.5405C32.7165 9.79905 28.255 9.79905 25.5133 12.5405C22.7717 15.2823 22.7717 19.7435 25.5133 22.485C28.255 25.2264 32.7165 25.2268 35.4585 22.485C38.2001 19.7435 38.2001 15.2823 35.4585 12.5405ZM33.4695 20.4961C31.8243 22.1411 29.1471 22.1411 27.5024 20.4961C25.8572 18.8511 25.8572 16.1744 27.5024 14.5294C29.1471 12.8847 31.824 12.8844 33.4695 14.5294C35.1146 16.1744 35.1146 18.8511 33.4695 20.4961Z" fill="white"/>
</svg>
